<?xml version="1.0" standalone="no"?>
<!DOCTYPE svg PUBLIC "-//W3C//DTD SVG 20010904//EN"
 "http://www.w3.org/TR/2001/REC-SVG-20010904/DTD/svg10.dtd">
<svg version="1.0" xmlns="http://www.w3.org/2000/svg"
 width="432.000000pt" height="321.408000pt" viewBox="0 0 432.000000 321.408000"
 preserveAspectRatio="xMidYMid meet">
<metadata>
Created by potrace 1.11, written by Peter Selinger 2001-2013
</metadata>
<g transform="translate(0.000000,321.408000) scale(0.043200,-0.043200)"
fill="#000000" stroke="none">
<path d="M5143 7052 c-86 -57 -210 -135 -318 -202 -44 -27 -85 -54 -92 -60 -7
-5 -25 -16 -40 -22 -15 -7 -59 -33 -98 -58 -38 -26 -77 -49 -85 -52 -8 -3 -35
-21 -60 -39 -45 -34 -149 -99 -157 -99 -2 0 -44 -27 -93 -60 -49 -33 -92 -60
-95 -60 -4 0 -26 -13 -50 -30 -24 -16 -47 -30 -51 -30 -3 0 -28 -15 -54 -34
-26 -19 -63 -42 -81 -52 -19 -9 -36 -20 -39 -23 -3 -3 -14 -11 -25 -17 -50
-27 -70 -40 -89 -56 -11 -10 -27 -18 -35 -18 -20 -1 -51 -24 -51 -39 0 -6 9
-11 20 -11 11 0 20 4 20 9 0 5 8 11 18 14 21 7 93 50 149 88 23 16 44 29 48
29 3 0 33 18 65 40 32 22 64 40 69 40 6 0 11 5 11 10 0 6 5 10 11 10 6 0 30
14 54 30 24 17 48 30 54 30 6 0 11 5 11 10 0 6 5 10 11 10 5 0 37 18 69 40 32
22 64 40 69 40 6 0 11 4 11 8 0 5 16 14 35 22 19 8 35 17 35 22 0 4 7 8 15 8
8 0 15 5 15 10 0 6 6 10 13 10 6 0 28 14 47 30 19 16 41 30 48 30 6 0 12 4 12
9 0 5 8 11 18 14 17 6 73 37 82 47 3 3 26 17 53 30 26 14 47 28 47 32 0 5 7 8
15 8 8 0 15 5 15 10 0 6 5 10 11 10 6 0 24 9 39 20 16 11 39 19 52 17 13 -2
17 -2 11 0 -17 6 -17 23 0 23 7 0 23 9 35 20 12 11 26 20 32 20 5 0 10 5 10
10 0 6 5 10 11 10 6 0 30 14 54 30 24 17 48 30 54 30 6 0 11 5 11 10 0 6 5 10
10 10 6 0 20 9 32 20 12 11 28 20 36 20 9 0 11 -7 7 -20 -5 -14 -2 -20 9 -20
9 0 16 -4 16 -10 0 -5 5 -10 11 -10 6 0 2 16 -10 36 -25 42 -25 44 -6 44 8 0
15 5 15 10 0 17 35 11 58 -10 12 -11 24 -20 27 -20 4 0 26 -13 50 -30 24 -16
48 -30 54 -30 6 0 11 -4 11 -8 0 -5 16 -14 35 -22 19 -8 35 -17 35 -22 0 -4 7
-8 15 -8 8 0 15 -4 15 -10 0 -5 7 -10 15 -10 8 0 15 -4 15 -10 0 -5 -7 -10
-16 -10 -8 0 -12 -5 -9 -10 5 -8 11 -7 21 1 16 13 52 0 88 -33 11 -10 26 -18
33 -18 17 0 17 -17 1 -23 -7 -3 2 -3 20 0 17 3 32 1 32 -4 0 -5 16 -15 35 -23
19 -8 35 -17 35 -22 0 -4 7 -8 16 -8 10 0 14 -5 10 -16 -4 -9 -2 -13 5 -8 9 5
54 -11 69 -26 10 -10 65 -41 83 -47 9 -3 17 -9 17 -14 0 -5 5 -9 11 -9 6 0 30
-13 54 -30 24 -16 48 -30 54 -30 6 0 11 -4 11 -10 0 -5 7 -10 15 -10 8 0 15
-3 15 -8 0 -4 15 -13 33 -21 17 -8 34 -17 37 -20 8 -10 64 -42 83 -48 21 -7
22 -19 2 -27 -8 -3 -15 -11 -15 -17 0 -7 8 -4 21 7 17 15 24 16 40 6 10 -7 29
-18 42 -24 12 -7 24 -15 27 -18 3 -3 15 -11 28 -17 12 -7 32 -19 45 -25 12 -7
24 -15 27 -18 3 -3 14 -10 25 -16 48 -26 70 -39 75 -44 10 -10 65 -41 83 -47
9 -3 17 -9 17 -14 0 -5 6 -9 14 -9 8 0 16 -3 18 -7 4 -11 87 -53 104 -53 32 0
11 29 -35 48 -27 11 -83 43 -125 71 -41 28 -78 51 -81 51 -3 0 -49 27 -102 60
-52 33 -97 60 -100 60 -2 0 -24 14 -48 30 -24 17 -46 30 -50 30 -4 0 -26 14
-50 30 -24 17 -46 30 -50 30 -3 0 -24 12 -48 27 -23 15 -51 33 -62 39 -11 6
-79 47 -150 90 -72 44 -172 104 -224 134 -100 59 -104 61 -229 139 -46 28 -85
51 -88 51 -2 0 -38 23 -80 50 -41 28 -83 50 -92 49 -9 0 -49 -21 -89 -47z"/>
<path d="M5208 6921 c-19 -19 -48 -37 -393 -251 -226 -140 -596 -373 -848
-534 -70 -44 -135 -85 -145 -91 -9 -5 -37 -23 -62 -40 -48 -32 -58 -38 -135
-80 -68 -37 -66 -35 -60 -46 7 -11 65 17 65 31 0 6 5 10 10 10 6 0 10 -5 10
-11 0 -6 6 -17 13 -24 32 -36 36 -45 31 -59 -4 -10 -1 -16 8 -16 27 0 28 13 2
61 -24 43 -25 49 -11 63 9 9 20 16 24 16 17 0 46 -83 56 -162 2 -18 -32 -19
-918 -33 -187 -3 -505 -8 -707 -11 l-367 -6 -6 -38 c-7 -40 2 -110 15 -110 4
0 10 25 13 55 6 58 13 78 27 70 6 -4 6 -218 0 -255 -1 -9 -50 91 -50 103 0 7
-9 18 -19 24 -19 12 -71 114 -71 139 0 8 28 21 68 33 62 18 124 20 832 30 854
13 1080 18 1088 26 16 15 -24 20 -161 19 -237 -2 -965 -14 -1137 -19 -85 -3
-275 -8 -423 -11 l-267 -7 0 -23 c0 -12 -4 -26 -10 -29 -5 -3 -10 -16 -11 -28
0 -21 -1 -21 -11 3 l-11 25 -9 -34 c-8 -30 -5 -41 40 -115 27 -44 55 -91 61
-103 12 -23 11 -37 -34 -768 -28 -462 -29 -468 -18 -462 15 10 21 79 48 602
15 285 31 518 41 583 6 41 24 42 24 1 0 -24 4 -30 15 -25 9 3 15 0 15 -9 0 -8
-7 -15 -15 -15 -12 0 -15 -16 -17 -77 -1 -74 -2 -91 -8 -103 -6 -12 -9 -66
-10 -207 -1 -84 -6 -155 -11 -158 -16 -10 -11 -48 6 -41 8 3 15 1 15 -4 0 -6
-7 -10 -16 -10 -13 0 -15 -16 -13 -110 1 -61 -1 -114 -5 -117 -3 -3 2 -12 12
-19 16 -12 16 -13 0 -19 -15 -6 -16 -9 -3 -21 8 -8 11 -22 8 -30 -5 -14 -8
-12 -19 7 -11 21 -13 10 -16 -86 -2 -60 0 -114 5 -120 15 -18 42 11 45 49 2
20 6 36 10 37 4 0 79 2 167 4 88 2 175 4 193 4 17 1 32 6 32 11 0 7 -68 10
-204 9 -113 0 -209 2 -215 6 -6 3 -11 15 -11 27 0 17 2 18 15 8 16 -13 18 -9
15 32 -1 14 3 29 8 32 5 3 103 6 218 7 115 1 232 6 259 10 29 4 55 3 62 -3 7
-6 24 -4 48 7 43 17 45 18 45 8 0 -5 -47 -39 -105 -78 -57 -38 -102 -71 -100
-73 10 -10 180 89 210 122 18 20 54 36 59 27 3 -5 93 -9 200 -10 154 -2 206 1
251 14 52 15 58 15 74 1 21 -19 89 -21 126 -4 21 9 31 9 46 0 28 -18 99 -16
99 3 0 12 19 15 109 15 63 0 112 -4 116 -10 3 -5 -4 -11 -17 -12 -13 -1 67 -5
177 -8 l199 -5 7 -25 7 -25 3 25 c1 14 3 32 4 40 7 59 16 255 20 415 20 809
33 1136 47 1152 6 8 18 12 27 11 9 -2 24 7 34 19 25 31 37 29 37 -8 0 -17 4
-28 10 -24 5 3 7 12 4 19 -3 8 -1 17 5 20 6 4 8 12 5 19 -5 15 46 47 75 47 14
0 19 5 15 15 -5 11 3 17 24 21 21 4 29 11 25 21 -4 10 0 13 18 9 24 -6 68 18
56 30 -10 10 63 46 80 40 11 -4 13 -1 8 14 -6 18 -3 20 19 14 21 -5 25 -3 20
10 -4 9 -1 16 6 16 7 0 39 18 71 40 32 22 63 40 69 40 5 0 10 4 10 9 0 5 9 7
20 4 16 -4 19 -2 14 11 -4 11 -1 16 10 16 9 0 16 5 16 10 0 6 5 10 11 10 6 0
24 9 40 21 16 11 36 18 44 15 10 -3 12 0 8 11 -6 15 -4 15 17 0 33 -23 47 -21
25 3 -21 23 -22 21 25 44 45 22 67 36 99 64 14 13 33 21 42 19 13 -3 16 0 12
11 -5 13 0 14 28 9 23 -5 29 -4 19 3 -13 8 -12 11 5 25 35 26 67 30 83 9 15
-20 15 -16 -5 32 -5 14 -2 16 23 10 20 -5 25 -4 14 3 -8 6 -12 11 -10 13 3 2
25 14 50 28 25 13 50 31 56 39 10 13 13 12 25 -6 7 -12 17 -19 23 -17 6 2 35
-14 64 -36 29 -22 59 -40 68 -40 8 0 17 -6 20 -14 3 -8 16 -17 30 -20 13 -4
24 -12 24 -20 0 -9 8 -12 25 -8 15 2 25 0 25 -7 0 -6 -4 -11 -10 -11 -5 0 -7
-7 -4 -15 4 -8 10 -15 15 -15 4 0 6 7 3 15 -10 25 16 17 67 -20 27 -19 53 -35
58 -35 5 0 28 -16 51 -35 23 -19 48 -35 56 -35 9 0 41 -17 72 -38 31 -21 72
-45 90 -53 34 -15 40 -24 20 -32 -8 -2 -9 -8 -4 -13 5 -5 11 -4 13 4 3 6 8 12
13 12 10 0 163 -93 205 -124 17 -13 40 -26 53 -30 12 -4 22 -13 22 -20 0 -8
14 -16 31 -20 17 -3 42 -15 56 -26 14 -11 32 -20 40 -20 9 0 13 -6 10 -13 -3
-7 1 -24 8 -38 12 -21 14 -22 20 -6 10 24 32 21 39 -5 3 -13 6 -54 7 -93 l2
-70 7 78 c4 43 10 80 13 83 3 3 15 -4 26 -15 19 -19 21 -33 22 -128 0 -60 2
-121 4 -138 4 -41 15 -552 26 -1275 l1 -75 761 3 c669 2 762 0 770 -13 4 -8
12 -15 18 -15 5 0 40 -21 78 -46 38 -25 77 -44 87 -42 19 3 -43 46 -148 102
l-46 25 -736 4 c-404 2 -737 5 -740 8 -2 2 -6 32 -8 67 l-4 62 159 0 159 0 -3
-45 c-2 -26 2 -50 9 -57 10 -10 152 -14 610 -19 896 -10 1219 -16 1231 -23 6
-4 15 -4 21 -1 6 4 9 -14 7 -47 l-3 -53 -232 -3 c-128 -1 -232 -6 -232 -11 0
-15 68 -21 230 -20 85 0 172 0 193 0 l37 -1 0 -46 c0 -40 2 -45 15 -34 12 10
15 10 15 -3 0 -23 -50 -30 -93 -12 -49 20 -157 32 -157 16 0 -6 13 -11 29 -11
17 0 33 -4 36 -10 3 -5 21 -10 40 -10 19 0 36 -4 39 -9 5 -7 79 -23 121 -25
11 -1 8 145 -4 154 -3 3 -6 35 -6 73 -2 270 -5 320 -20 307 -13 -10 -15 -9
-15 9 0 11 5 21 10 21 6 0 10 6 10 13 0 9 -57 12 -253 12 -195 0 -252 -3 -251
-12 1 -7 2 -23 3 -36 1 -28 27 -65 37 -54 4 4 -1 13 -10 20 -13 10 -16 20 -12
35 7 21 12 22 184 23 169 2 244 0 250 -6 1 -1 3 -26 5 -55 l2 -53 -227 1
c-211 2 -228 1 -228 -16 0 -15 9 -17 78 -15 42 2 144 4 225 6 146 2 148 2 153
-20 4 -13 12 -23 20 -23 9 0 14 -12 14 -35 0 -29 -4 -35 -22 -36 -77 -3 -448
4 -523 10 -49 5 -362 9 -694 10 -333 1 -606 2 -607 4 -1 1 -5 157 -8 347 -4
190 -11 428 -17 528 -6 101 -8 186 -5 189 3 3 301 6 662 7 516 1 658 4 661 14
4 9 -133 12 -660 12 -568 0 -666 -2 -677 -14 -8 -11 -11 -67 -10 -193 4 -310
8 -440 15 -462 4 -13 1 -28 -6 -37 -9 -11 -9 -18 -1 -26 7 -7 12 -36 12 -65
l0 -53 -162 6 c-90 3 -165 8 -167 10 -2 2 4 13 15 25 17 19 18 21 1 30 -9 6
-17 19 -17 29 0 19 8 20 144 20 86 0 147 4 151 10 4 6 -39 10 -122 10 -171 0
-168 -1 -168 63 l0 52 148 3 c198 3 196 22 -3 22 l-150 0 0 54 c0 45 3 54 20
59 26 7 26 27 1 27 -19 0 -20 10 -21 306 0 289 1 306 17 299 27 -10 81 -17 63
-7 -46 24 -89 55 -93 67 -7 15 0 75 8 83 3 4 21 -2 40 -12 26 -14 32 -22 25
-31 -8 -9 -4 -14 12 -18 12 -4 25 -2 28 3 3 5 10 -7 16 -26 10 -32 10 -34 -8
-28 -19 6 -19 5 1 -15 27 -27 26 -39 -4 -53 l-24 -11 31 -29 31 -29 984 1 983
0 10 -26 c6 -14 10 -85 10 -158 0 -120 2 -136 21 -160 11 -14 18 -34 16 -44
-3 -12 -5 -13 -6 -2 -1 13 -31 15 -223 15 l-223 0 0 35 c-1 19 -4 41 -9 48 -4
7 -2 19 4 27 10 12 10 18 -1 31 -8 9 -13 38 -12 70 1 30 -2 56 -7 59 -14 8
-16 -27 -8 -130 7 -96 8 -114 9 -152 0 -10 1 -47 3 -83 1 -36 4 -83 4 -104 2
-45 16 -40 19 7 3 49 3 58 1 117 l-3 55 204 3 c177 2 206 0 222 -14 14 -13 16
-20 6 -35 -9 -15 -8 -21 7 -32 16 -12 16 -14 2 -26 -9 -7 -23 -10 -32 -7 -9 3
-20 3 -25 0 -6 -3 -88 -5 -184 -4 -113 0 -175 -3 -175 -9 0 -7 75 -12 208 -13
199 -3 207 -4 208 -23 3 -60 5 -65 22 -65 12 0 11 -4 -8 -13 -14 -8 -23 -20
-21 -28 3 -8 6 -33 9 -56 3 -29 8 -40 17 -37 7 3 16 1 19 -5 10 -16 -86 -23
-279 -19 l-180 3 -3 27 c-2 14 -11 32 -20 40 -15 12 -16 11 -4 -4 10 -12 12
-30 7 -57 -6 -37 6 -63 20 -41 8 14 425 14 425 0 0 -5 6 -10 13 -10 9 0 11
-12 9 -40 -4 -34 -1 -40 15 -40 19 0 19 7 16 163 -2 89 -6 178 -10 197 -6 35
-9 82 -12 174 -1 42 -3 47 -16 36 -13 -11 -15 -8 -15 13 0 19 4 25 15 21 11
-5 15 1 15 22 -1 28 -1 28 -15 10 -15 -19 -15 -19 -16 5 0 13 -2 77 -4 142 -4
111 -3 117 15 117 17 0 20 -7 20 -50 0 -27 4 -50 9 -50 16 0 21 -30 9 -50 -10
-15 -9 -35 0 -90 15 -87 36 -435 68 -1127 4 -91 11 -146 19 -153 9 -7 11 -1
10 23 -1 17 -5 106 -9 197 -6 153 -21 433 -46 873 l-10 177 40 97 c48 114 52
176 13 181 -18 3 -23 10 -23 33 0 24 4 29 24 29 18 0 25 -6 28 -22 3 -22 9
-23 103 -29 55 -4 115 -10 133 -14 35 -8 38 -3 22 41 -8 21 -7 29 6 39 9 6 15
17 13 24 -6 16 -79 43 -98 36 -19 -7 -221 14 -246 25 -24 11 -207 36 -364 50
-63 6 -117 13 -121 15 -21 13 -225 20 -535 17 -192 -2 -413 -3 -490 -2 -360 5
-417 4 -422 -3 -13 -21 21 -34 90 -36 90 -3 124 -6 160 -16 21 -6 27 -4 27 9
0 20 19 21 26 1 4 -10 19 -15 43 -14 20 0 30 3 24 6 -7 2 -13 9 -13 15 0 6 7
7 18 3 9 -4 28 -7 41 -6 12 0 27 -2 33 -5 12 -7 236 -9 244 -2 2 3 26 1 51 -3
38 -7 50 -6 65 7 15 14 20 15 34 3 12 -10 54 -15 148 -16 159 -3 197 -6 215
-17 7 -5 16 -5 20 0 8 12 121 14 121 3 0 -5 21 -8 48 -8 26 1 39 3 30 6 -10 2
-18 9 -18 15 0 6 11 8 28 4 15 -4 77 -9 137 -12 61 -2 147 -9 193 -14 46 -6
92 -8 102 -5 10 3 21 2 24 -3 11 -18 -58 -21 -417 -21 -196 0 -358 -3 -360 -7
-2 -5 581 -14 951 -14 120 0 144 -2 149 -16 12 -31 -15 -39 -115 -37 -55 2
-98 7 -100 13 -5 13 -45 13 -58 0 -11 -11 -514 -13 -1049 -5 -261 4 -647 7
-655 5 -24 -7 -63 -6 -105 1 -33 6 -51 6 -53 -1 -6 -16 -29 -12 -36 6 -6 15
-8 15 -28 -2 -15 -14 -22 -16 -25 -6 -3 6 -10 9 -16 5 -18 -11 -77 -15 -77 -5
0 5 9 21 20 35 11 14 20 30 20 36 0 5 8 14 17 19 14 8 11 12 -18 28 -19 10
-42 23 -51 29 -16 9 -138 84 -296 181 -327 200 -491 299 -837 506 -220 132
-401 244 -403 249 -5 14 -25 10 -44 -10z m1429 -869 c32 -22 78 -50 103 -63
24 -13 50 -29 57 -36 17 -16 16 -42 -2 -49 -10 -4 -13 -14 -9 -29 4 -16 0 -26
-13 -33 -10 -6 -15 -13 -12 -16 3 -3 456 -6 1008 -6 998 -1 1002 -1 1042 -22
41 -21 41 -21 34 -67 -8 -55 -21 -81 -39 -81 -11 0 -14 16 -13 68 2 50 -1 66
-11 64 -9 -1 -1596 -3 -2054 -2 -19 0 -25 34 -8 45 6 3 10 23 10 44 0 20 4 41
10 47 12 12 2 26 -30 42 -67 32 -150 98 -150 118 0 22 14 17 77 -24z m-2719
-11 c-13 -16 -38 -36 -56 -45 -18 -9 -35 -23 -38 -31 -4 -8 -12 -15 -20 -15
-20 0 -17 -13 7 -28 19 -12 20 -11 15 6 -4 13 -1 22 8 25 9 4 17 -2 21 -14 10
-29 29 -18 33 19 5 51 22 37 22 -18 0 -49 -23 -90 -51 -90 -5 0 -7 -5 -3 -11
3 -6 17 -9 31 -6 24 4 24 3 18 -47 -4 -28 -9 -67 -11 -86 -2 -19 -4 -103 -3
-186 1 -179 15 -164 -159 -164 l-112 0 5 88 c3 48 7 115 10 149 5 61 4 63 -22
69 -49 13 -1244 -4 -1295 -17 l-45 -12 3 -55 c4 -72 14 -80 14 -10 l0 56 558
7 c306 4 602 8 657 8 92 2 100 1 98 -17 0 -10 -4 -125 -8 -255 -3 -130 -8
-252 -10 -271 -2 -19 -7 -141 -11 -270 -3 -129 -8 -238 -10 -242 -3 -4 -247
-7 -543 -8 -552 0 -733 -5 -763 -21 -13 -7 -362 -14 -454 -10 -7 1 -11 19 -10
46 1 42 3 46 36 57 19 7 40 11 45 9 6 -2 86 -3 178 -2 118 2 173 -1 183 -10
11 -9 14 -7 14 13 l0 24 -217 -3 c-227 -4 -259 1 -233 32 8 9 14 29 15 43 0
31 -26 27 255 34 85 1 162 1 170 -2 10 -3 15 2 15 15 0 19 -6 19 -125 15 -69
-2 -168 -4 -220 -5 l-95 0 0 49 c-1 41 2 49 22 57 13 5 111 8 219 8 107 -1
198 2 201 5 3 3 3 13 -1 22 -5 13 -9 15 -18 6 -8 -8 -74 -12 -215 -12 -173 0
-205 2 -209 15 -4 8 -1 22 6 30 7 8 10 21 7 28 -13 35 6 39 227 39 119 1 219
5 221 9 8 11 -23 31 -36 23 -6 -4 -100 -7 -208 -8 l-196 0 0 48 c-1 26 2 49 6
52 4 2 78 7 165 11 264 11 260 11 250 -42 -4 -22 -3 -35 4 -35 8 0 10 18 10
97 0 4 -75 5 -168 3 -92 -2 -189 -4 -217 -4 l-50 -1 4 50 c2 28 8 53 15 57 6
4 80 8 164 8 84 0 151 4 148 9 -3 4 -69 6 -147 4 -164 -5 -194 -1 -181 25 15
29 24 92 27 192 1 52 6 109 10 127 l7 31 362 2 c198 1 388 4 421 6 33 2 296 6
583 10 515 7 524 7 546 28 30 28 40 56 21 56 -21 0 -20 59 0 67 14 5 14 7 0
23 -9 10 -27 21 -41 24 -39 10 -37 14 59 92 9 8 21 14 25 14 4 0 18 9 32 20
39 30 55 25 28 -9z m-33 -826 l0 -120 -123 -3 c-67 -1 -122 -6 -122 -11 0 -4
51 -7 113 -6 64 2 117 -1 125 -7 6 -6 12 -32 12 -58 0 -45 -2 -48 -31 -54 -39
-8 -222 -8 -242 0 -12 4 -13 12 -6 39 5 18 9 37 8 42 -1 4 -1 43 0 86 1 77 1
77 29 78 15 1 38 5 52 10 19 6 12 8 -27 5 l-53 -3 0 63 0 63 133 -2 132 -2 0
-120z m-11 -285 c14 0 16 -4 10 -17 -4 -10 -6 -35 -5 -55 2 -43 20 -39 -166
-40 l-108 -1 -3 33 c-2 18 -1 43 2 56 7 26 31 30 166 27 47 -2 93 -3 104 -3z
m3036 -167 c0 -70 1 -68 -40 -66 -19 1 -90 2 -158 2 l-123 1 6 44 c5 31 3 46
-7 52 -18 13 51 19 200 19 l122 0 0 -52z m-3031 28 c9 -6 10 -11 2 -15 -6 -4
-11 -25 -11 -46 0 -38 -1 -39 -42 -44 -24 -3 -85 -7 -136 -8 l-92 -3 0 56 c0
31 3 59 7 62 10 10 256 8 272 -2z m-9 -170 l0 -39 -62 -6 c-35 -3 -79 -8 -98
-9 -19 -2 9 -5 62 -5 91 -2 128 -12 92 -26 -20 -8 -306 -6 -319 2 -5 4 4 9 20
12 28 5 30 8 33 57 l3 51 134 1 135 2 0 -40z"/>
<path d="M2404 5505 c-1 -5 -5 -82 -8 -170 -9 -274 -25 -588 -32 -628 l-6 -37
264 0 264 1 18 412 c10 227 19 416 20 420 2 12 -516 14 -520 2z m382 -30 c-6
-17 23 -27 69 -23 l30 3 0 -75 c0 -41 -3 -80 -7 -85 -4 -6 -9 -102 -11 -214
-3 -178 -5 -204 -20 -213 -15 -8 -15 -13 -4 -36 8 -16 11 -45 7 -72 -4 -40 -8
-45 -33 -48 -19 -2 -33 3 -43 15 -12 16 -13 16 -14 2 0 -9 -6 -19 -12 -21 -27
-8 -299 -1 -307 8 -4 5 -5 37 -2 72 4 35 3 66 -1 68 -16 10 -8 35 15 44 13 5
16 9 7 9 -21 1 -25 131 -4 131 23 0 16 28 -8 32 -31 4 -35 28 -5 28 24 0 24 1
19 70 -4 60 -2 73 13 84 17 12 17 13 -4 19 -30 8 -24 39 9 47 20 5 22 7 9 12
-13 5 -17 20 -18 62 l0 56 62 1 c34 1 98 2 142 3 70 1 80 3 79 19 -1 11 5 17
18 17 14 0 18 -5 14 -15z"/>
<path d="M3850 6180 c0 -5 -7 -10 -15 -10 -8 0 -15 -4 -15 -10 0 -5 -7 -10
-15 -10 -8 0 -15 -4 -15 -10 0 -5 -7 -10 -15 -10 -8 0 -15 -4 -15 -10 0 -5 -9
-10 -20 -10 -11 0 -20 -3 -20 -7 0 -5 -18 -16 -39 -27 -36 -17 -41 -17 -62 -2
-32 22 -35 21 -35 -19 0 -19 -4 -39 -10 -45 -5 -5 -217 -11 -514 -15 -337 -4
-555 -11 -655 -21 -168 -17 -185 -19 -340 -33 -163 -16 -280 -30 -375 -46 -47
-8 -122 -17 -167 -21 -63 -5 -83 -10 -83 -22 0 -10 -7 -12 -25 -8 -28 7 -32
-4 -13 -33 9 -15 9 -26 -1 -47 -15 -33 -2 -51 26 -36 16 9 99 18 186 21 9 1
17 8 17 16 0 9 11 21 25 27 22 10 24 13 10 21 -10 5 -21 5 -28 -1 -15 -13
-158 -19 -175 -8 -20 12 -8 31 19 32 89 5 336 37 343 45 6 5 44 9 85 10 42 0
99 4 126 8 28 4 64 4 81 1 16 -4 91 -3 165 1 191 11 221 14 246 27 30 17 33
16 34 -15 0 -28 1 -28 11 -5 10 19 16 21 46 16 79 -15 474 -3 496 15 9 8 18 7
32 -4 23 -17 129 -21 118 -4 -3 6 -19 9 -34 5 -18 -3 -33 0 -40 9 -11 13 -1
15 72 15 72 0 88 -3 103 -20 24 -26 65 -27 58 -1 -5 21 19 31 85 31 53 0 55
-16 2 -25 -61 -10 -58 -25 4 -25 53 0 56 1 56 25 0 23 41 75 60 75 4 0 20 11
36 25 16 14 32 25 36 25 7 0 154 95 173 111 5 6 2 9 -8 9 -9 0 -17 -4 -17 -10z"/>
<path d="M5157 6169 c-97 -23 -184 -93 -227 -184 -16 -34 -30 -66 -30 -69 0
-9 291 -3 297 6 2 5 13 6 24 3 14 -5 39 15 105 84 77 81 114 108 114 83 0 -5
-36 -43 -79 -86 -44 -42 -81 -80 -83 -83 -2 -3 61 -6 140 -7 130 -1 142 0 142
17 0 39 -82 167 -106 167 -6 0 -17 7 -24 15 -38 45 -211 86 -184 44 12 -20 7
-184 -7 -210 -13 -24 -13 -24 -22 16 -4 22 -7 79 -5 128 3 57 1 87 -6 86 -6
-1 -28 -5 -49 -10z"/>
<path d="M6416 6042 c-4 -7 -143 -9 -377 -8 l-370 3 6 -21 c26 -83 28 -99 16
-118 -7 -11 -10 -22 -8 -24 9 -9 42 12 42 26 0 12 21 16 110 21 111 5 111 12
-1 9 -89 -2 -111 6 -118 42 -3 17 -5 32 -3 34 1 1 156 5 344 9 260 5 343 4
348 -6 4 -6 9 -33 10 -60 l2 -49 -36 -2 c-20 -1 -123 -2 -229 -2 l-194 -1 0
-225 c1 -333 1 -332 13 -324 6 3 9 24 7 45 -2 28 1 39 12 42 9 2 107 5 218 6
160 2 203 0 206 -11 3 -7 7 -35 11 -61 l6 -48 -235 3 c-130 2 -237 0 -239 -4
-5 -17 5 -118 13 -118 13 0 19 42 9 62 -6 11 -9 21 -7 23 4 3 336 9 405 7 l52
-2 -3 -37 c-2 -21 1 -46 6 -55 8 -17 -4 -18 -179 -19 -246 -1 -293 -2 -293
-11 -1 -109 0 -117 16 -111 13 5 15 15 9 49 l-6 44 224 0 225 0 4 -52 c3 -29
1 -57 -2 -61 -4 -4 -111 -7 -239 -5 l-231 3 0 -24 c0 -21 3 -23 33 -18 17 4
122 7 232 9 l200 2 3 -62 3 -63 -233 1 c-204 1 -233 0 -236 -14 -3 -14 23 -15
230 -13 l233 2 6 -55 c3 -30 4 -57 2 -59 -7 -9 -454 -7 -460 1 -2 5 -339 8
-748 8 -606 -1 -744 -4 -748 -14 -4 -11 -55 -14 -230 -15 -224 -2 -257 3 -228
32 6 6 11 25 11 42 0 16 4 35 8 41 4 7 82 11 221 12 l214 2 -6 -28 c-6 -28 6
-62 16 -46 3 5 7 29 8 52 l4 44 -247 1 -248 2 0 -80 c0 -44 -2 -143 -3 -219
-1 -104 1 -140 11 -143 9 -4 12 12 12 56 l0 61 738 2 c405 1 949 2 1207 2
l470 1 0 -55 c0 -30 4 -60 7 -66 4 -6 6 -13 4 -15 -3 -2 -561 -4 -1241 -3
-1046 0 -1235 -2 -1233 -14 2 -10 25 -13 98 -14 52 0 616 1 1254 1 l1158 1 -7
28 c-9 36 -13 168 -20 682 -7 551 -19 937 -29 947 -2 2 -7 0 -10 -5z m-28
-172 c26 0 27 -2 26 -58 l0 -57 -215 0 -214 0 -3 57 -3 58 178 2 c98 2 184 2
191 1 8 -2 26 -3 40 -3z m26 -200 l1 -55 -220 0 -220 0 1 49 c1 29 7 52 15 57
8 5 106 8 218 6 l205 -2 0 -55z m2 -95 c3 -8 1 -28 -4 -45 -9 -24 -8 -30 4
-30 17 0 19 -16 3 -26 -14 -9 -427 -9 -436 -1 -3 4 -6 28 -6 54 l0 48 134 5
c274 12 299 11 305 -5z m-234 -863 l246 -2 4 -52 c2 -29 3 -58 1 -64 -3 -7
-36 -11 -91 -11 -48 0 -590 -1 -1206 -2 -615 -1 -1120 -1 -1122 2 -2 2 1 18 7
35 7 22 7 36 -1 51 -10 20 -8 21 32 21 24 1 95 3 158 6 323 14 1176 21 1972
16z"/>
<path d="M4680 6029 c-156 -12 -599 -16 -610 -5 -22 22 -29 -16 -35 -183 -3
-96 -8 -178 -11 -183 -3 -5 0 -15 6 -24 17 -19 44 1 31 24 -5 8 -6 23 -4 33 6
20 5 20 303 20 55 0 105 0 110 0 6 -1 10 -19 10 -42 0 -28 4 -39 13 -37 9 4
12 38 12 129 0 118 -1 124 -20 122 -50 -5 -416 -4 -425 2 -12 8 -1 97 14 107
16 11 686 10 686 -1 0 -19 -31 -81 -41 -81 -25 0 3 -17 29 -18 29 -1 30 0 26
46 -2 32 2 49 12 57 14 10 10 47 -5 44 -3 -1 -49 -5 -101 -10z m-190 -179 c11
0 11 -3 2 -12 -15 -15 -16 -50 -2 -64 26 -26 -19 -33 -225 -35 l-210 -1 2 48
c1 27 2 52 2 56 1 3 9 8 18 10 12 2 317 1 413 -2z"/>
<path d="M5189 5785 c-3 -2 -129 -5 -280 -5 l-275 -1 -2 -216 c-2 -119 -5
-219 -7 -223 -2 -4 -5 -114 -5 -246 -2 -227 -1 -239 17 -235 28 5 536 6 549 1
9 -4 13 119 18 463 3 257 2 467 -2 467 -5 0 -11 -2 -13 -5z m-22 -41 c-3 -3
-73 -6 -156 -6 -83 1 -152 -2 -155 -6 -11 -19 14 -28 74 -27 47 0 64 -3 63
-12 -5 -22 14 -14 20 8 4 16 10 20 24 14 10 -4 44 -7 76 -6 l58 2 -3 -93 -3
-93 -27 3 c-33 4 -35 -2 -8 -30 17 -19 20 -19 20 -5 0 9 5 17 10 17 6 0 10
-108 10 -303 l0 -303 -60 4 c-36 3 -65 0 -73 -7 -18 -14 -27 -4 -28 28 0 24
-1 25 -9 5 -10 -25 -65 -37 -110 -24 -18 5 -30 5 -30 -1 0 -16 -38 -10 -44 7
-4 11 -10 13 -19 7 -6 -5 -34 -9 -62 -8 l-50 0 -2 58 c-1 43 2 59 13 64 23 9
16 21 -20 34 l-35 13 25 12 c14 7 32 11 42 8 15 -5 15 -4 1 8 -9 8 -18 37 -22
74 -5 52 -4 64 12 78 12 11 27 15 44 11 14 -4 28 -2 31 4 5 7 -8 11 -38 11
-65 0 -78 7 -64 33 16 27 20 49 22 112 0 28 5 56 9 63 6 8 0 15 -17 22 -33 12
-33 26 -1 34 17 4 23 11 18 19 -5 9 -7 69 -4 131 1 5 28 6 61 3 44 -4 62 -1
71 9 16 19 1 23 -96 27 -44 2 37 4 179 5 143 1 257 -1 253 -4z"/>
<path d="M5256 5780 c-1 -3 -1 -209 -1 -459 l0 -453 84 -4 c60 -3 87 -1 92 8
14 22 -2 28 -77 28 l-74 0 1 88 c0 48 -1 96 -3 107 -3 18 3 20 75 23 97 4 101
17 5 17 l-73 0 0 80 0 80 73 0 c96 0 93 13 -5 17 -50 2 -78 7 -81 16 -2 8 7
12 27 12 36 0 42 17 9 22 -22 3 -23 7 -22 78 l1 75 72 0 c41 0 71 4 71 10 0 7
-28 9 -74 7 -67 -4 -74 -2 -78 16 -7 27 -2 32 41 33 l36 2 -35 6 -35 6 0 60 0
60 38 3 c20 2 37 7 37 12 0 5 14 2 31 -7 35 -18 36 -17 41 22 l3 30 -88 5
c-49 3 -90 3 -91 0z"/>
<path d="M5654 5758 c3 -13 6 -31 6 -42 0 -15 3 -16 15 -6 8 7 39 13 68 13
l52 0 0 -64 c0 -53 -3 -64 -17 -64 -9 0 -20 -4 -24 -8 -4 -4 4 -7 19 -7 31 0
43 -16 27 -35 -9 -11 -9 -23 -1 -48 8 -23 9 -53 3 -91 -7 -43 -6 -59 4 -67 20
-16 8 -29 -29 -30 -21 -1 -25 -3 -12 -6 32 -8 36 -16 39 -87 3 -63 2 -67 -23
-81 l-26 -14 26 -1 26 0 1 -110 1 -110 -80 0 c-64 0 -79 -3 -79 -15 0 -12 17
-15 93 -15 l92 0 -2 452 -3 453 -91 3 c-91 3 -92 3 -85 -20z"/>
<path d="M4474 5610 c-6 -6 -97 -10 -232 -10 l-222 -1 0 -72 c-2 -275 -7 -504
-11 -513 -5 -8 -5 -22 0 -94 0 -11 7 -20 15 -20 11 0 14 11 13 43 l-2 42 218
3 217 2 0 -44 c0 -25 5 -48 10 -51 12 -8 12 -10 14 148 1 77 -2 131 -8 134 -5
4 -12 1 -14 -5 -4 -14 -427 -18 -436 -4 -3 5 -2 30 2 58 l7 49 215 0 215 0 -3
-44 c-3 -33 -1 -42 10 -39 10 4 13 33 14 119 0 63 4 121 8 128 9 14 -12 34
-25 25 -10 -6 -408 -12 -429 -7 -12 3 -16 12 -12 29 2 13 8 24 13 24 4 0 7 12
6 28 l-2 27 214 3 213 2 -6 -32 c-6 -32 6 -69 17 -52 3 5 7 36 8 68 4 58 -6
77 -27 56z m1 -235 c-1 -30 -4 -57 -6 -59 -2 -3 -98 -6 -212 -7 -212 -3 -245
2 -219 34 6 7 9 23 5 35 -12 48 4 52 226 52 l207 0 -1 -55z m-4 -295 c3 -30 5
-56 4 -57 0 -1 -100 -3 -220 -3 l-220 -1 4 53 c2 29 7 55 11 58 5 3 100 5 212
5 l203 0 6 -55z"/>
<path d="M7029 5539 c-1 -8 -1 -18 1 -24 1 -8 9 -245 25 -730 2 -60 4 -112 4
-115 1 -2 6 1 13 8 16 16 494 17 503 2 4 -6 11 -7 17 -4 6 4 8 35 4 83 -3 42
-11 209 -16 371 -6 162 -13 320 -15 350 -2 30 -4 59 -4 64 -1 4 -11 6 -23 3
-34 -9 -470 -10 -490 -2 -12 5 -18 2 -19 -6z m211 -44 c0 -25 129 -24 143 1
12 21 37 17 37 -7 0 -17 4 -19 23 -13 12 4 37 8 55 10 l32 2 0 -87 c0 -48 4
-123 10 -167 5 -43 11 -169 13 -279 2 -110 6 -207 11 -216 6 -14 -16 -16 -218
-16 -219 0 -226 1 -239 21 -11 16 -15 64 -16 186 0 91 -2 174 -3 184 -2 14 5
22 22 26 25 6 25 6 3 12 -17 4 -23 14 -25 35 -2 39 -1 43 7 85 6 31 4 37 -14
43 -25 8 -26 18 -4 40 12 12 13 19 4 24 -6 4 -14 23 -17 42 -8 50 11 62 86 57
53 -4 60 -2 60 14 0 10 7 18 15 18 8 0 15 -7 15 -15z"/>
<path d="M8080 5310 l-35 -7 32 -2 c38 -1 46 -20 41 -96 -3 -43 -6 -50 -28
-56 -23 -7 -23 -7 7 -8 17 -1 35 -6 38 -11 10 -15 -14 -40 -39 -41 -19 -1 -19
-2 3 -8 23 -6 27 -16 33 -91 3 -38 -3 -59 -19 -63 -12 -3 -8 -5 9 -6 15 0 29
-5 33 -10 6 -11 -32 -26 -56 -23 -11 2 -16 -6 -17 -27 -1 -37 -8 -51 -28 -51
-10 0 -14 12 -14 40 0 29 -4 40 -15 40 -20 0 -19 -44 2 -81 16 -27 16 -29 -1
-48 -20 -22 -4 -40 19 -21 10 8 19 8 32 2 12 -7 26 -6 45 4 26 13 28 13 28 -5
0 -11 -9 -23 -20 -26 -11 -4 -18 -10 -15 -15 6 -10 54 -19 60 -11 3 6 -2 113
-19 416 -3 44 -5 110 -6 148 0 74 2 72 -70 57z"/>
<path d="M3875 4430 c-4 -7 -243 -10 -707 -10 -563 0 -705 -3 -717 -13 -9 -7
-52 -21 -96 -31 -44 -10 -95 -23 -112 -28 -18 -5 -37 -7 -43 -3 -5 3 -23 -1
-40 -10 -17 -9 -36 -15 -43 -14 -6 1 -19 -1 -27 -4 -8 -3 -51 -14 -95 -23 -44
-9 -100 -21 -125 -27 -25 -6 -61 -11 -81 -11 -20 -1 -43 -6 -50 -12 -8 -5 -50
-18 -94 -28 -44 -10 -102 -25 -129 -32 -27 -8 -53 -11 -57 -8 -13 8 1 106 17
125 20 22 17 34 -11 53 -44 29 -85 15 -85 -30 0 -14 8 -25 20 -29 16 -5 20
-15 20 -50 0 -24 3 -50 6 -58 7 -20 -14 -26 -103 -29 -47 -2 -73 -7 -73 -14 0
-15 -23 -24 -63 -24 -48 0 -79 -11 -73 -25 5 -14 -25 -23 -106 -32 -34 -3 -48
-9 -48 -20 0 -12 9 -14 42 -10 77 9 139 30 134 44 -4 10 15 13 87 14 858 6
1104 9 1165 14 61 5 72 3 72 -10 0 -8 5 -15 10 -15 6 0 10 7 10 16 0 11 6 14
20 9 20 -6 26 2 12 20 -4 6 -68 11 -142 13 -102 3 -138 7 -146 18 -14 18 -24
18 -24 0 0 -11 -33 -15 -167 -18 -93 -2 -172 -2 -176 0 -5 2 0 13 10 24 15 17
29 19 93 18 102 -3 125 1 65 11 -55 8 -133 2 -152 -13 -7 -6 -34 -9 -60 -7
-112 6 -140 -13 -38 -26 75 -9 60 -25 -21 -23 -48 2 -63 6 -60 15 7 16 -8 16
-50 1 -25 -9 -39 -9 -59 0 -15 7 -25 8 -25 2 0 -6 -19 -10 -42 -10 -57 1 -32
13 57 29 39 7 79 16 90 21 11 4 47 13 80 20 33 6 87 18 120 25 33 8 94 21 135
30 41 9 96 22 122 30 28 7 50 9 54 4 9 -15 34 -10 28 5 -4 10 2 14 18 14 36
-1 129 21 144 33 7 6 19 7 25 3 7 -4 26 -7 43 -7 34 1 100 26 91 35 -14 14
118 17 707 18 643 1 672 -1 623 -37 -11 -7 -13 -13 -7 -13 7 0 12 -15 12 -35
0 -19 5 -35 10 -35 6 0 10 -6 10 -12 0 -10 276 -13 1345 -13 1116 0 1344 2
1340 13 -3 8 -5 17 -5 20 0 4 -591 7 -1313 6 -721 0 -1322 2 -1334 4 -20 4
-21 8 -16 72 4 43 2 70 -5 74 -6 3 -13 2 -17 -4z"/>
<path d="M6557 4423 c-9 -15 8 -126 20 -130 15 -5 27 38 21 72 l-5 24 676 1
c452 0 695 -3 736 -11 67 -12 117 -32 115 -45 0 -5 11 -10 26 -12 22 -3 26 0
20 13 -5 15 -1 14 30 -4 27 -16 40 -19 55 -11 14 8 21 8 24 -2 3 -8 25 -14 53
-15 26 -1 63 -9 82 -17 19 -8 56 -20 83 -26 26 -7 47 -17 47 -21 0 -5 7 -9 16
-9 10 0 14 -6 10 -15 -3 -9 0 -15 9 -15 7 0 22 -11 33 -25 11 -14 27 -25 37
-25 9 0 22 -6 29 -13 11 -11 6 -13 -25 -14 -30 -2 -39 2 -39 14 0 15 -1 15
-12 1 -11 -14 -30 -16 -70 -9 -5 0 -8 7 -8 15 0 22 -29 29 -101 27 -58 -2 -69
0 -88 20 -11 12 -24 19 -28 16 -3 -4 -1 -7 5 -7 7 0 12 -9 12 -20 0 -11 6 -21
13 -21 6 -1 39 -2 72 -4 84 -3 85 -3 85 -21 0 -14 -8 -16 -62 -9 -77 9 -509
15 -1083 16 -359 0 -436 2 -459 14 -35 19 -36 19 -36 -1 0 -13 -13 -15 -72
-14 -40 1 -80 -1 -89 -4 -9 -4 -38 -5 -65 -2 -37 3 -49 8 -48 20 1 9 -4 16
-11 16 -8 0 -11 -8 -8 -20 5 -18 0 -19 -63 -18 -38 1 -74 5 -81 10 -6 5 -14 5
-18 -2 -3 -5 -33 -9 -66 -9 -50 1 -59 4 -59 20 0 11 -7 19 -16 19 -14 0 -14
-3 -3 -16 10 -13 10 -17 -2 -25 -20 -13 -27 -11 -38 9 -6 9 -11 12 -11 5 0
-17 -104 -10 -126 8 -15 12 -16 12 -10 -9 5 -16 3 -22 -7 -22 -8 0 -20 -7 -27
-15 -7 -8 -23 -15 -36 -15 -17 0 -22 -4 -18 -15 5 -13 -209 -15 -1792 -14
-1858 0 -1884 0 -1884 -38 0 -10 -89 -13 -439 -13 -283 0 -442 -4 -446 -10 -3
-5 0 -10 7 -10 7 -1 192 -1 412 0 334 1 411 3 475 18 42 9 119 17 171 19 52 1
872 2 1822 2 l1728 1 13 32 13 33 330 2 c181 1 462 2 624 4 162 1 300 1 305
-1 6 -1 15 -2 20 -1 17 3 542 0 992 -5 263 -3 434 -1 437 5 7 10 1 15 -128
106 -47 33 -85 67 -86 76 0 12 -17 20 -62 28 -35 7 -79 20 -100 28 -20 8 -41
12 -47 9 -6 -4 -43 4 -83 18 -40 13 -100 30 -133 36 -33 7 -64 17 -70 22 -11
10 -1492 11 -1498 1z"/>
<path d="M8782 4214 c-22 -10 -2 -24 33 -24 19 0 36 -4 39 -9 6 -8 53 -22 91
-26 11 -1 54 -11 95 -22 41 -11 102 -26 135 -33 33 -7 72 -17 87 -22 15 -6 38
-8 52 -4 15 4 28 0 36 -9 7 -8 23 -15 37 -15 13 0 34 -5 45 -11 26 -14 258
-30 278 -19 16 9 13 10 -101 29 -37 6 -85 11 -109 11 -34 0 -41 3 -36 16 5 13
-1 15 -30 12 -22 -1 -38 3 -44 11 -6 10 -21 12 -60 8 -47 -6 -51 -5 -38 10 12
15 7 16 -52 10 -57 -6 -63 -5 -47 7 18 14 18 14 -2 21 -12 3 -26 3 -32 -1 -6
-3 -22 -1 -35 5 -13 6 -35 16 -48 22 -14 7 -31 9 -39 6 -8 -3 -27 1 -42 9 -34
18 -39 18 -31 -1 4 -12 2 -13 -12 -7 -9 5 -39 12 -67 15 -27 4 -59 9 -70 11
-11 3 -26 3 -33 0z"/>
<path d="M322 4162 c-269 -2 -322 -5 -322 -16 0 -19 221 -23 770 -15 350 5
410 8 440 22 33 16 22 17 -265 15 -165 -2 -445 -4 -623 -6z"/>
<path d="M6031 4002 c3 -7 192 -12 579 -15 316 -3 820 -8 1119 -11 299 -3 773
-6 1052 -6 432 -1 514 -3 545 -16 20 -8 48 -13 63 -11 l26 3 -25 11 c-36 15
365 17 425 2 47 -12 58 -26 28 -35 -10 -3 -26 -10 -36 -15 -10 -5 -22 -7 -27
-4 -14 9 -1159 14 -4314 20 -1601 4 -2914 9 -2919 12 -5 3 -20 0 -33 -7 -19
-11 -26 -11 -39 0 -13 11 -19 11 -33 -3 -15 -16 -8 -17 108 -17 69 0 334 -2
590 -4 256 -3 1781 -5 3390 -7 1609 -1 2987 -4 3063 -7 115 -4 135 -7 126 -18
-7 -9 -32 -14 -65 -14 -56 0 -76 -12 -47 -29 17 -10 17 -10 1 -11 -9 0 -21 8
-27 18 -9 16 -36 17 -328 19 -175 1 -725 4 -1223 7 -948 6 -7270 9 -7276 3 -2
-2 22 -11 54 -21 31 -10 71 -24 87 -31 59 -25 145 -39 157 -27 17 17 38 15 38
-4 0 -11 -6 -14 -21 -9 -15 5 -20 3 -17 -6 3 -8 13 -14 24 -14 10 0 19 -6 18
-12 -1 -7 -2 -42 -2 -78 l-2 -65 -50 0 c-27 0 -50 4 -50 10 0 5 -13 7 -30 4
-19 -4 -30 -2 -30 5 0 6 -4 11 -10 11 -5 0 -7 -7 -3 -16 5 -14 -3 -15 -58 -11
-35 3 -66 6 -69 7 -3 1 -13 2 -22 1 -10 -1 -18 3 -18 8 0 6 9 11 19 11 11 0
21 5 23 11 2 6 23 11 46 12 23 1 42 5 42 10 0 4 -4 7 -10 7 -5 0 -10 5 -10 10
0 6 7 10 15 10 8 0 15 5 15 10 0 6 7 10 15 10 8 0 23 4 33 9 9 5 25 12 35 15
28 9 19 26 -14 26 -21 0 -78 -26 -168 -78 -135 -77 -169 -95 -203 -106 -53
-16 9 -22 257 -21 l275 0 1 65 c0 36 4 90 8 120 5 34 5 60 -1 67 -6 7 -8 19
-5 28 5 11 22 14 81 11 41 -3 79 -7 84 -10 4 -2 7 -20 5 -38 -6 -58 -32 -498
-37 -643 -4 -77 -8 -162 -10 -190 -11 -120 -14 -263 -8 -305 6 -38 11 -44 27
-42 11 2 21 5 23 6 1 2 5 79 8 173 4 117 3 172 -4 177 -6 4 -9 13 -6 20 3 8 0
17 -5 21 -6 3 -9 11 -5 16 3 5 9 7 14 4 5 -3 20 1 34 10 16 10 26 12 31 6 3
-6 4 -52 1 -103 -3 -51 -8 -152 -11 -225 l-6 -131 97 4 c123 6 134 2 134 -42
0 -33 -2 -34 -37 -35 -21 0 -56 -4 -78 -8 l-40 -7 50 -7 c28 -3 61 -5 75 -4
18 1 24 -2 22 -14 -1 -9 5 -22 13 -29 17 -14 16 -20 20 115 2 44 5 132 9 195
15 270 15 360 1 360 -15 0 -27 -149 -14 -164 5 -5 4 -17 -2 -27 -5 -10 -7 -30
-3 -44 4 -15 2 -25 -5 -25 -15 0 -14 -27 1 -33 9 -4 9 -8 3 -14 -5 -4 -11 -24
-12 -43 0 -19 -2 -60 -4 -90 -1 -30 -7 -58 -13 -62 -15 -11 -168 -10 -185 1
-9 6 -10 11 -2 15 6 4 11 25 11 47 0 26 4 39 12 38 26 -3 39 1 33 11 -4 6 -15
8 -25 5 -23 -7 -31 13 -21 56 11 52 5 270 -9 304 -20 47 -21 79 -4 92 14 10
12 17 -18 55 -33 41 -34 45 -22 78 7 19 13 47 13 63 l1 27 128 0 c71 0 132 -3
135 -7 4 -3 2 -11 -3 -18 -6 -7 -6 -34 1 -75 7 -44 7 -66 -1 -74 -12 -12 -12
-63 0 -91 11 -25 13 -17 23 85 3 36 8 98 11 138 l5 72 -165 0 -164 0 0 -49 c0
-28 -4 -52 -8 -55 -5 -3 -7 -56 -6 -118 3 -119 -2 -168 -17 -168 -16 0 -9 211
11 340 11 68 17 135 13 148 -6 24 -6 24 68 21 70 -4 74 -3 77 19 2 12 7 22 11
22 20 0 101 -42 101 -53 0 -7 6 -5 16 5 23 22 10 72 -22 87 -36 16 -38 14 -20
-14 14 -21 14 -25 2 -25 -8 0 -18 5 -21 10 -3 6 -15 10 -26 10 -20 0 -26 15
-9 25 15 9 12 22 -7 29 -21 9 -34 -12 -28 -44 5 -25 4 -26 -44 -27 -38 -1 -48
2 -44 13 3 9 -2 14 -14 14 -14 0 -24 -11 -31 -32 -11 -33 -11 -33 -9 12 2 39
5 45 24 45 12 0 25 4 29 8 4 4 16 7 26 7 12 0 18 5 15 13 -2 6 -14 11 -26 10
-16 -2 -21 3 -21 22 0 15 -6 25 -14 25 -16 0 -29 27 -17 34 4 3 22 1 39 -3 17
-5 32 -8 34 -6 2 1 167 6 368 10 201 4 366 8 368 9 1 2 -169 6 -378 10 -379 8
-430 12 -438 34 -3 9 270 12 1209 10 l1213 -3 -3 -49 c-1 -27 -7 -60 -12 -73
-4 -12 -10 -183 -11 -379 -2 -308 -4 -357 -18 -364 -8 -5 -10 -10 -4 -10 7 0
9 -29 7 -82 -1 -46 -3 -117 -3 -160 0 -74 -1 -77 -27 -86 -18 -7 -22 -11 -10
-11 11 -1 17 -9 17 -26 0 -16 6 -25 15 -25 9 0 15 9 15 25 0 13 6 28 14 32 11
6 15 65 20 298 7 352 16 722 21 830 l3 80 63 1 c35 1 69 2 74 4 33 8 34 0 30
-137 -12 -368 -15 -1082 -5 -1088 6 -3 8 -10 5 -15 -7 -12 16 -60 26 -54 5 3
6 16 3 29 -3 12 -1 26 5 29 16 11 13 43 -5 50 -12 5 -14 15 -10 44 9 55 16
361 17 755 l1 347 21 1 c21 1 21 1 -1 7 -85 24 41 27 1232 27 l1253 0 -3 -135
c-3 -74 -4 -191 -3 -260 1 -69 2 -278 3 -465 l1 -340 -27 -3 c-16 -2 -28 -7
-28 -13 0 -5 10 -8 22 -6 17 1 23 -3 24 -21 1 -13 6 -28 12 -34 12 -12 15 -8
27 47 5 24 6 434 0 1158 0 54 4 71 16 78 9 4 19 6 22 3 3 -3 36 -6 74 -7 l68
-2 3 -600 c3 -569 4 -601 21 -615 13 -10 18 -27 17 -50 l-1 -35 -140 2 c-77 0
-147 -3 -157 -8 -26 -14 -20 -79 8 -89 14 -6 24 -19 26 -36 4 -40 28 -43 28
-5 0 24 4 31 19 31 27 0 36 -17 20 -37 -11 -13 -11 -15 6 -12 12 3 21 14 23
27 3 21 8 22 88 22 l84 0 2 -27 c1 -16 2 -36 2 -47 3 -47 -14 -47 1091 -44
l1035 3 2 -125 c2 -186 5 -269 12 -322 4 -31 3 -48 -4 -48 -5 0 -10 -7 -10
-15 0 -9 9 -15 25 -15 25 0 25 1 20 73 -3 39 -8 165 -11 279 l-6 207 -287 -5
c-157 -2 -290 -5 -296 -5 -5 -1 -14 -1 -19 0 -15 3 -581 3 -1069 -1 l-457 -3
0 45 c0 36 5 48 28 66 32 26 23 43 -13 24 -14 -7 -26 -11 -28 -9 -2 2 -2 37 1
77 4 72 5 73 36 80 l31 7 -40 5 -40 5 -2 429 c-1 236 -7 468 -12 515 -6 47
-11 123 -11 169 l0 82 1246 0 c1235 0 1246 0 1251 -20 3 -11 9 -17 14 -15 4 3
6 12 2 20 -4 12 8 15 68 17 41 0 81 0 89 -1 8 -1 49 -2 90 -2 41 0 83 -2 93
-5 26 -8 9 -25 -19 -18 -19 5 -23 3 -18 -10 4 -11 0 -16 -13 -16 -10 0 -25 -6
-31 -12 -10 -10 -14 -8 -18 9 -7 25 -62 49 -77 34 -6 -6 3 -16 27 -27 20 -10
36 -21 36 -25 0 -15 -21 -20 -35 -9 -16 13 -39 4 -29 -11 3 -5 -4 -24 -15 -43
-12 -18 -21 -43 -21 -55 0 -18 -4 -21 -21 -16 -19 6 -20 5 -8 -8 8 -8 19 -14
24 -14 10 2 27 -333 18 -365 -3 -14 2 -18 23 -18 21 0 24 3 15 13 -6 8 -7 18
-2 23 4 5 2 101 -5 214 -7 113 -10 208 -8 211 2 4 48 26 101 49 54 24 126 56
161 71 34 16 65 29 68 29 3 0 20 6 37 14 18 8 59 26 92 40 41 19 67 37 83 61
12 19 22 38 22 42 0 5 -217 8 -482 8 -266 0 -1146 4 -1957 9 -1027 6 -1472 6
-1470 -2z"/>
<path d="M4765 3790 c-5 -8 -51 -11 -148 -8 -103 2 -141 0 -144 -9 -3 -9 170
-12 766 -13 463 0 771 3 771 9 0 5 -224 9 -557 9 -501 -1 -608 2 -665 18 -9 3
-19 0 -23 -6z"/>
<path d="M9199 3759 c-1 -8 -2 -38 -3 -68 -3 -61 -13 -72 -41 -41 -16 18 -16
20 -2 20 10 0 17 8 17 20 0 25 -21 25 -75 1 l-39 -17 32 -24 c18 -13 32 -30
32 -37 0 -15 36 -18 45 -3 13 21 23 9 27 -31 2 -25 -2 -47 -10 -58 -12 -14
-13 -13 -7 12 8 38 -9 34 -42 -12 -21 -30 -47 -48 -101 -72 -40 -18 -77 -38
-83 -46 -6 -7 -18 -13 -25 -13 -11 0 -14 19 -14 84 0 104 -8 146 -28 146 -13
0 -14 -13 -7 -92 4 -51 8 -103 8 -115 -1 -13 5 -23 13 -23 20 0 22 -71 3 -78
-6 -2 -5 -10 2 -18 7 -8 13 -43 13 -77 1 -34 4 -67 8 -72 3 -6 6 -69 7 -141 0
-124 11 -184 33 -184 11 0 10 103 -3 336 -9 160 -8 198 3 211 7 9 51 34 98 56
46 21 92 47 101 58 30 34 39 23 39 -48 0 -38 5 -167 10 -288 16 -368 16 -358
3 -362 -7 -3 -13 -11 -13 -19 0 -8 -4 -14 -10 -14 -15 0 -12 -36 5 -50 11 -9
12 -15 2 -31 -10 -17 -13 -17 -23 -4 -9 12 -13 11 -24 -10 -15 -28 -38 -33
-46 -10 -4 8 -12 15 -19 15 -7 0 -18 14 -25 30 -12 29 -30 41 -30 20 0 -5 -4
-10 -9 -10 -5 0 -3 14 6 31 14 28 16 29 33 14 10 -9 26 -32 35 -51 9 -19 20
-34 26 -34 6 0 7 5 3 11 -7 11 10 52 34 81 10 13 11 21 2 37 -14 28 -32 17
-24 -15 3 -13 2 -24 -2 -24 -5 0 -19 -3 -31 -6 -28 -8 -31 13 -5 32 16 12 16
13 0 19 -10 4 -31 0 -49 -9 -20 -10 -37 -13 -47 -7 -13 8 -10 12 20 27 37 17
54 54 35 73 -16 16 -27 13 -27 -6 0 -9 -14 -32 -31 -50 -30 -30 -31 -33 -17
-55 10 -16 12 -32 7 -53 -8 -29 1 -44 27 -45 6 0 19 -9 30 -21 17 -19 17 -21
2 -30 -9 -5 -14 -17 -11 -28 6 -25 -8 -32 -30 -16 -15 11 -15 14 -2 25 20 17
19 27 -6 41 -21 11 -21 11 -14 -67 4 -44 8 -104 9 -134 1 -36 6 -59 16 -67 12
-9 13 -14 3 -24 -14 -14 -17 -150 -6 -311 l6 -96 26 9 c14 6 36 7 49 4 37 -9
92 4 85 21 -3 9 -13 12 -23 9 -10 -3 -21 -2 -23 2 -3 5 -22 8 -42 7 -20 -1
-38 3 -40 9 -2 7 -6 85 -8 173 -4 111 -2 165 6 173 8 8 5 19 -11 40 -25 34
-13 52 30 44 19 -4 25 -10 21 -22 -3 -9 6 -5 21 12 39 40 56 36 56 -14 0 -32
3 -39 13 -31 6 6 28 12 47 14 27 2 34 7 32 21 -2 13 4 17 24 17 27 0 27 -1 8
-15 -18 -14 -18 -14 10 -15 20 0 27 4 23 14 -3 8 1 17 9 20 27 10 34 7 34 -17
0 -20 5 -24 34 -25 21 -1 41 6 55 19 12 11 27 18 34 16 9 -4 9 -6 0 -6 -23 -2
-14 -19 13 -25 32 -8 41 -2 25 17 -12 15 -5 47 10 47 5 0 18 -5 29 -12 26 -16
33 -6 19 25 -9 21 -9 30 0 41 18 21 -3 25 -169 25 -80 0 -148 0 -152 1 -10 0
-7 79 3 86 5 3 9 12 9 20 0 22 -19 7 -31 -24 -7 -17 -13 -22 -20 -15 -15 15 0
63 21 63 11 0 20 10 23 27 7 36 0 46 -28 39 -13 -3 -26 -2 -29 3 -9 14 21 33
43 26 19 -6 20 -2 16 42 -5 49 -12 196 -20 408 -6 132 -13 256 -20 325 -3 25
-7 85 -9 134 -3 49 -8 91 -11 94 -3 3 -6 -1 -6 -9z"/>
<path d="M6037 3753 c-3 -4 -3 -292 -2 -640 3 -539 1 -632 -11 -637 -8 -3 -14
-10 -14 -16 0 -16 22 -12 36 7 10 15 25 17 84 14 57 -2 71 0 68 11 -3 8 -17
12 -39 10 -19 -2 -49 0 -66 3 -32 6 -33 7 -33 60 l0 55 160 -1 c89 -1 164 1
167 5 7 7 -126 10 -249 6 l-78 -2 -1 408 c-2 613 -3 712 -10 719 -4 3 -9 3
-12 -2z"/>
<path d="M1630 3673 c1 -12 69 -53 87 -53 11 0 14 -7 10 -22 -3 -13 -8 -72
-12 -133 -3 -60 -8 -146 -10 -190 -2 -44 -7 -179 -10 -300 -3 -121 -8 -229
-10 -241 -7 -33 -8 -235 -1 -241 19 -20 28 30 32 183 2 93 7 214 10 269 10
181 10 198 13 398 2 118 8 221 16 255 8 31 12 59 9 61 -2 2 -4 -1 -4 -7 0 -20
-59 -14 -77 8 -17 19 -53 28 -53 13z"/>
<path d="M8820 3655 c-12 -15 -14 -201 -4 -325 8 -92 12 -226 14 -425 0 -105
5 -207 9 -227 5 -20 5 -40 1 -45 -5 -4 -5 -30 0 -58 4 -27 4 -52 0 -55 -7 -4
-341 -5 -420 -1 -24 1 -26 5 -25 49 l0 47 143 1 c78 1 145 4 149 8 3 3 -14 6
-38 7 -24 0 -91 1 -149 2 l-105 2 -1 45 c-2 89 -8 63 -14 -60 -3 -69 -3 -129
-1 -134 2 -4 107 -6 234 -2 229 6 231 6 255 -16 22 -20 24 -21 18 -4 -8 24
-13 121 -21 411 -10 392 -23 666 -32 698 -2 10 1 24 7 32 10 12 10 18 1 29 -8
10 -9 16 -1 21 5 3 10 -1 10 -10 0 -13 6 -16 25 -11 14 4 25 3 25 -1 0 -5 9
-13 19 -18 11 -6 52 -29 91 -52 40 -24 78 -43 86 -43 24 0 15 17 -16 30 -27
11 -36 27 -31 54 4 23 -12 66 -25 66 -8 0 -14 -4 -14 -10 0 -5 -7 -10 -15 -10
-8 0 -15 -7 -15 -15 0 -8 -4 -15 -10 -15 -5 0 -10 5 -10 10 0 6 -13 10 -28 10
-15 0 -32 4 -37 9 -20 17 -62 21 -75 6z"/>
<path d="M6981 3579 c0 -9 -10 -19 -20 -22 -14 -3 -21 -17 -26 -48 -6 -43 0
-563 10 -852 3 -82 3 -152 0 -156 -2 -5 -23 -5 -45 -1 -47 9 -75 -6 -60 -30 8
-12 10 -12 10 -1 0 11 14 13 65 9 l65 -6 -5 167 c-3 91 -7 321 -10 511 -3 190
-7 354 -8 365 -2 20 5 20 681 23 567 2 682 4 682 16 0 11 -109 13 -664 10
-624 -3 -665 -3 -669 14 -4 15 -5 15 -6 1z"/>
<path d="M2220 3563 c0 -7 10 -13 23 -13 12 0 306 -3 652 -6 423 -4 627 -3
620 4 -11 11 -373 20 -948 24 -272 2 -347 0 -347 -9z"/>
<path d="M3540 3480 c0 -52 -3 -162 -6 -245 -11 -285 -20 -740 -16 -754 4 -10
7 -10 14 3 5 9 21 16 35 16 15 0 23 3 19 7 -4 4 -15 8 -24 8 -20 0 -20 3 -9
295 11 305 10 712 -1 740 -9 20 -11 5 -12 -70z"/>
<path d="M4600 3520 c-8 -5 -11 -12 -8 -16 4 -4 298 -7 653 -8 552 -1 645 1
643 13 -3 12 -100 14 -638 17 -360 2 -642 -1 -650 -6z"/>
<path d="M4600 3461 c-12 -571 -18 -1737 -7 -1747 4 -4 9 -5 12 -2 3 3 9 392
12 865 4 623 3 865 -5 879 -7 12 -12 14 -12 5z"/>
<path d="M4 3428 c-4 -7 -2 -14 4 -16 7 -2 12 -17 12 -33 0 -19 4 -28 10 -24
6 4 10 16 8 28 l-3 22 516 3 516 3 2 -104 c1 -57 -2 -113 -7 -126 l-8 -22
-521 0 c-475 1 -557 -3 -525 -23 5 -3 240 -6 523 -7 448 -1 516 -3 532 -17 9
-8 20 -12 23 -9 4 4 9 53 11 109 3 57 8 129 12 160 4 32 5 60 3 63 -3 3 -252
5 -553 5 -405 0 -550 -4 -555 -12z"/>
<path d="M2306 3428 c-3 -7 -9 -179 -16 -383 -11 -358 -20 -599 -23 -619 -1
-6 55 -11 143 -13 80 -1 202 -4 273 -6 l127 -4 0 71 c1 39 2 105 4 146 2 41 7
176 10 300 4 124 9 288 11 365 l5 141 -248 2 c-136 2 -255 5 -265 8 -9 3 -19
0 -21 -8z m477 -47 l27 -1 -4 -112 c-3 -62 -6 -115 -6 -118 -1 -3 -1 -15 -1
-27 1 -11 -2 -24 -8 -28 -7 -4 -8 -28 -4 -65 5 -56 5 -60 -19 -69 -13 -5 -37
-7 -52 -4 -22 4 -27 2 -24 -8 3 -10 19 -13 51 -12 26 1 49 -2 52 -7 9 -14 -5
-38 -26 -43 -19 -5 -27 -37 -9 -37 6 0 10 5 10 10 0 6 4 10 9 10 5 0 9 -32 8
-72 l-2 -72 -35 -7 c-25 -6 -40 -3 -52 7 -15 14 -17 13 -23 -6 -4 -12 -4 -24
-1 -28 10 -10 96 -10 96 0 0 5 5 6 10 3 13 -8 13 -52 0 -60 -6 -4 -8 -15 -5
-26 5 -15 1 -19 -17 -20 l-23 -2 23 -4 c22 -4 23 -9 20 -64 -3 -65 -7 -69 -73
-67 -22 0 -47 -1 -55 -3 -12 -3 -16 8 -18 54 -2 32 -7 55 -11 52 -5 -2 -7 -23
-5 -45 3 -38 2 -40 -26 -40 -20 0 -30 -5 -30 -15 0 -8 -7 -15 -16 -15 -14 0
-15 7 -10 41 19 122 19 157 -1 167 -12 7 -24 7 -34 1 -11 -7 -10 -10 9 -15 15
-4 21 -12 18 -23 -2 -9 -12 -51 -21 -93 -17 -79 -33 -97 -54 -60 -8 14 -12 15
-22 5 -8 -8 -38 -13 -70 -13 l-58 0 6 37 c4 21 12 44 20 51 7 7 13 18 13 23 0
5 7 9 15 9 9 0 18 6 21 14 3 8 22 17 42 21 38 7 62 21 62 36 0 5 -26 9 -57 9
-54 0 -59 -2 -75 -31 -23 -40 -39 -29 -34 24 2 23 4 68 5 100 1 50 3 57 21 57
11 0 20 7 20 15 0 9 -9 15 -21 15 -20 0 -21 3 -16 178 3 97 8 202 12 232 4 30
8 76 7 102 l0 46 207 -3 c113 -2 218 -4 234 -4z"/>
<path d="M7076 3421 c-4 -6 -4 -20 -2 -33 3 -13 8 -243 11 -513 3 -269 7 -491
9 -492 3 -4 556 -5 557 -1 2 5 -12 746 -16 898 -3 74 -5 139 -5 144 0 4 -8 5
-17 1 -21 -8 -487 -8 -513 0 -10 3 -21 1 -24 -4z m254 -50 c0 -10 -9 -21 -20
-24 -16 -4 -19 -11 -16 -39 3 -18 5 -36 5 -40 1 -5 7 -8 15 -8 9 0 12 8 8 25
-3 18 0 25 12 25 10 0 16 9 16 24 0 14 7 32 16 40 20 21 90 21 98 1 3 -8 10
-15 16 -15 5 0 10 7 10 15 0 17 16 20 26 4 4 -8 9 -8 17 0 6 6 21 11 34 11 18
0 23 -6 24 -27 1 -16 3 -39 6 -53 2 -14 6 -220 9 -459 5 -417 5 -433 -13 -426
-35 14 -90 17 -97 6 -5 -7 -13 -8 -24 -2 -18 10 -145 6 -162 -4 -6 -4 -19 -3
-28 1 -9 4 -42 7 -72 8 -50 1 -55 3 -56 23 -1 13 -6 29 -13 36 -6 8 -8 17 -4
21 4 4 7 24 8 44 0 32 3 37 24 37 13 0 26 6 28 13 3 7 -5 12 -20 12 -14 0 -32
3 -41 6 -20 8 -21 34 -2 34 21 0 31 21 14 31 -11 6 -14 26 -12 85 2 69 5 79
23 86 29 10 27 30 -2 23 -15 -4 -28 -1 -36 8 -18 22 -1 28 79 29 38 0 70 4 70
9 0 4 -27 6 -60 3 -70 -5 -74 -1 -75 81 0 49 1 50 28 47 34 -4 28 14 -9 28
-14 6 -22 15 -18 23 3 8 -2 22 -11 31 -22 21 -11 36 26 36 19 0 28 4 24 11 -4
6 -13 8 -21 5 -15 -6 -34 22 -34 50 0 11 6 15 20 11 11 -3 20 -1 20 4 0 5 -4
9 -10 9 -5 0 -10 9 -10 19 0 10 -7 22 -15 25 -22 8 -1 46 25 46 10 0 22 5 26
12 5 8 11 6 20 -6 12 -17 13 -16 24 3 9 17 20 21 60 21 42 0 50 -3 50 -19z"/>
<path d="M7677 3413 c-1 -1 -1 -33 1 -72 4 -79 16 -90 45 -41 21 35 47 40 47
9 0 -12 5 -19 13 -16 7 2 11 15 9 30 -4 30 5 34 34 12 25 -19 44 -19 44 0 0
32 33 55 78 55 37 0 43 -2 33 -14 -8 -10 -9 -16 -1 -21 5 -3 13 1 16 9 3 9 10
14 14 11 4 -3 13 2 20 10 23 28 30 4 30 -101 l0 -104 69 0 c38 0 76 -2 83 -5
12 -5 14 6 12 52 -1 32 -3 75 -3 97 -1 33 -3 37 -16 26 -8 -7 -15 -18 -15 -25
0 -7 -7 -15 -15 -19 -8 -3 -14 -16 -14 -28 1 -17 2 -18 6 -5 8 32 24 17 21
-20 l-3 -38 -50 3 c-27 2 -51 5 -53 7 -2 2 2 13 8 25 9 16 9 25 1 33 -18 18
-13 44 10 50 12 3 18 10 15 16 -4 6 -13 8 -21 4 -10 -3 -15 2 -15 17 0 17 5
21 28 18 15 -2 26 -8 25 -15 -2 -7 1 -13 7 -13 6 0 10 5 10 10 0 13 27 13 32
-1 5 -14 38 0 38 17 0 8 0 17 0 21 0 5 -538 12 -543 6z"/>
<path d="M4912 3384 c-6 -12 -11 -178 -12 -419 -1 -220 -4 -497 -7 -615 -2
-118 -4 -222 -4 -230 1 -30 -1 -205 -2 -229 -1 -13 4 -26 11 -28 9 -4 12 18
13 84 0 48 2 205 4 348 5 390 7 969 4 980 -2 6 3 32 10 58 10 34 11 51 3 59
-7 7 -13 5 -20 -8z"/>
<path d="M4710 3380 c-8 -5 -5 -88 4 -97 11 -11 26 10 26 38 0 18 5 29 14 29
16 0 23 -30 17 -72 -3 -24 -7 -27 -33 -25 l-31 2 -3 -65 c-2 -36 -5 -248 -7
-472 l-3 -408 50 0 51 0 0 536 0 537 -38 1 c-22 1 -42 -1 -47 -4z"/>
<path d="M5704 3379 c-3 -5 -2 -14 1 -19 6 -10 8 -1004 3 -1032 -2 -9 12 -14
44 -16 l47 -3 -2 537 -2 538 -42 2 c-24 1 -46 -2 -49 -7z"/>
<path d="M9581 3293 c-16 -19 -28 -24 -52 -21 -20 2 -34 -2 -36 -9 -3 -7 0
-13 5 -13 6 0 8 -10 5 -21 -6 -22 -6 -22 25 -3 31 18 32 18 52 -4 16 -17 25
-20 45 -12 20 8 25 6 25 -6 0 -11 -6 -13 -20 -9 -20 6 -28 -9 -10 -20 14 -8
13 -85 -1 -85 -6 0 -13 9 -16 20 -3 11 -9 20 -13 20 -5 0 -8 13 -8 29 1 15 -2
33 -6 40 -13 20 -23 3 -23 -38 0 -21 -7 -48 -14 -59 -14 -20 -15 -20 -38 -1
-13 11 -21 25 -18 33 3 8 1 16 -6 19 -6 2 -10 18 -9 35 1 18 -2 32 -7 32 -19
0 -39 -30 -34 -50 7 -26 -13 -26 -28 1 -10 19 -13 20 -26 6 -9 -9 -15 -32 -15
-56 1 -29 -3 -41 -14 -41 -8 0 -14 -7 -14 -15 0 -8 4 -15 9 -15 5 0 11 7 15
15 3 8 10 15 16 15 11 0 13 -32 4 -79 -5 -24 -12 -31 -31 -31 -14 0 -21 -4
-18 -10 3 -5 15 -10 26 -10 10 0 20 -6 20 -12 1 -7 2 -17 4 -23 1 -5 3 -29 3
-52 2 -31 6 -43 17 -43 12 0 15 15 15 75 0 43 -4 75 -10 75 -18 0 -10 19 15
36 20 13 28 14 39 4 8 -6 23 -10 34 -8 10 2 26 -3 35 -10 13 -11 17 -10 26 6
13 24 5 32 -30 32 -19 0 -34 8 -45 25 -19 28 -9 50 10 23 17 -23 83 -20 89 4
7 25 27 23 27 -3 0 -18 4 -20 33 -14 36 8 49 23 41 45 -3 8 -8 28 -11 44 l-6
28 26 -16 c14 -10 28 -24 31 -32 9 -25 49 2 42 29 -3 12 1 25 11 32 22 17 27
55 7 55 -8 0 -25 -5 -36 -11 -21 -11 -21 -12 -3 -25 15 -11 16 -16 5 -29 -17
-20 -49 -19 -57 3 -4 9 -25 33 -47 54 -23 20 -38 39 -34 44 5 4 16 0 26 -9 23
-21 32 -21 32 -3 0 8 -13 21 -30 29 -28 15 -31 14 -49 -10z"/>
<path d="M5 3030 c-4 -6 -4 -14 -1 -17 3 -3 156 -5 341 -5 213 1 334 -2 330
-8 -7 -11 314 -8 332 3 7 5 21 -1 33 -13 27 -27 44 -21 48 16 l3 29 -540 3
c-384 2 -541 0 -546 -8z"/>
<path d="M8148 2633 l-68 -4 0 -104 c0 -57 -3 -110 -6 -119 -5 -14 6 -16 84
-16 l90 0 -3 43 c-1 23 -3 79 -4 125 -1 59 -4 81 -13 80 -7 -1 -43 -3 -80 -5z"/>
<path d="M934 2576 c-3 -8 -4 -27 -2 -43 2 -22 9 -29 31 -31 23 -3 27 -8 27
-33 0 -19 5 -29 15 -29 8 0 15 4 15 9 0 14 40 22 131 25 99 4 121 -3 102 -34
-18 -28 -16 -60 3 -60 8 0 12 5 9 10 -4 6 -1 17 5 25 7 8 10 24 7 34 -3 13 1
21 14 24 17 5 19 -1 17 -57 -1 -51 2 -67 19 -85 12 -13 24 -18 27 -13 3 5 47
10 96 9 78 0 90 -2 88 -16 -2 -10 -17 -18 -38 -21 -25 -4 -36 -11 -38 -25 -3
-16 -1 -17 7 -5 13 19 91 24 91 5 0 -13 -56 -29 -71 -19 -5 3 -9 -4 -9 -14 0
-11 -7 -25 -15 -32 -8 -7 -15 -17 -15 -23 0 -7 -16 -43 -35 -82 -19 -38 -39
-95 -43 -125 -7 -45 -9 -29 -10 90 -1 80 1 155 4 167 4 13 23 30 47 42 l42 21
-47 0 c-35 0 -48 -4 -48 -14 0 -8 -5 -16 -10 -18 -10 -3 -14 -68 -25 -353 -2
-66 -7 -143 -11 -171 -5 -46 -9 -53 -33 -58 -31 -6 -58 -23 -50 -30 10 -10 79
7 79 19 0 8 12 22 26 32 23 17 26 28 31 101 3 46 10 85 14 88 5 3 9 30 9 60 0
30 5 54 10 54 6 0 10 6 10 14 0 18 66 145 91 174 39 45 48 30 46 -75 -2 -80
-5 -98 -17 -98 -8 0 -14 -8 -14 -17 1 -9 5 -50 9 -92 4 -52 3 -76 -4 -76 -6 0
-11 6 -11 14 0 10 -7 12 -22 8 l-22 -5 22 -8 c13 -5 23 -18 24 -31 4 -60 3
-63 -18 -64 -11 -1 -29 -6 -40 -12 -15 -9 -7 -11 43 -12 57 0 63 2 67 23 3 12
8 112 11 222 3 110 7 216 9 235 2 19 5 67 7 105 4 69 3 70 -21 67 -14 -2 -74
-6 -134 -9 l-109 -5 7 32 c3 18 6 48 6 66 0 30 3 34 25 34 23 0 25 4 25 40 0
22 -3 40 -7 41 -8 1 -84 8 -118 11 -11 1 -37 1 -58 0 -31 -2 -38 -6 -35 -19 3
-15 13 -18 58 -16 30 1 61 -3 68 -9 9 -8 18 -6 32 7 19 18 20 17 20 -8 0 -31
-16 -43 -35 -27 -12 10 -15 10 -15 0 0 -9 -11 -11 -42 -6 -64 11 -191 13 -210
4 -10 -5 -26 -4 -35 1 -10 5 -26 12 -35 15 -10 3 -18 15 -18 27 0 21 1 21 19
5 23 -21 41 -14 41 15 0 16 -7 19 -40 19 -26 0 -43 -5 -46 -14z"/>
<path d="M3665 2551 c-3 -5 0 -21 6 -35 14 -29 8 -41 -16 -33 -9 4 -15 19 -15
37 0 40 -16 39 -23 -2 -6 -43 -1 -55 29 -62 21 -6 24 -11 23 -56 l-2 -50 -181
4 c-99 3 -419 8 -711 12 -291 3 -533 8 -536 10 -3 1 -131 4 -285 5 l-279 2 -7
-124 c-4 -68 -9 -191 -11 -273 -4 -133 -6 -151 -23 -156 -16 -6 -16 -7 -1 -13
23 -9 47 2 47 22 1 9 2 52 3 96 l2 80 320 -2 c176 -1 348 -3 383 -4 34 -2 67
2 73 8 7 7 -28 11 -118 12 -446 6 -648 12 -655 19 -4 4 -3 35 2 67 5 33 10 99
10 148 0 83 1 87 23 87 226 4 732 -4 1037 -14 96 -3 309 -7 473 -8 164 -1 300
-5 303 -10 3 -5 11 -5 17 -1 7 4 31 8 55 9 31 1 46 -3 55 -17 7 -10 18 -15 24
-11 13 8 15 70 2 77 -8 6 12 55 24 55 4 0 7 -8 8 -17 0 -14 2 -13 9 5 12 27
40 29 40 2 0 -23 25 -27 34 -5 4 11 21 15 65 15 60 0 60 0 66 -33 4 -18 6 -37
5 -42 -5 -26 3 -34 33 -33 158 2 416 -2 428 -7 11 -4 14 -20 12 -63 -2 -31 -3
-103 -2 -158 l0 -102 -185 5 c-117 2 -192 0 -203 -6 -22 -13 -8 -14 219 -12
l167 2 3 -91 c2 -51 7 -90 13 -90 6 0 11 62 12 162 1 90 3 213 4 273 l3 110
-150 2 c-82 1 -188 2 -236 3 l-88 0 0 50 c0 46 2 50 24 50 23 0 25 4 23 43 -2
36 -5 42 -26 45 -22 3 -23 1 -18 -27 7 -32 -11 -51 -47 -51 -19 0 -22 40 -5
57 19 19 -6 24 -115 26 -58 1 -108 5 -112 10 -10 10 -22 9 -29 -2z"/>
<path d="M6455 2348 c-4 -10 -54 -12 -216 -10 l-212 3 6 -23 c8 -32 10 -495 2
-508 -7 -11 2 -30 13 -30 12 0 31 50 21 56 -5 3 -9 32 -9 65 l0 59 73 0 c118
0 257 12 251 22 -3 5 -47 6 -97 3 -123 -8 -199 -6 -214 7 -18 14 -18 164 0
175 6 4 85 8 174 9 90 0 166 4 170 7 3 4 -75 7 -174 7 -136 0 -182 3 -185 13
-3 6 -3 33 0 60 l4 47 189 0 c152 0 194 -3 213 -15 20 -13 25 -13 42 0 17 13
18 14 1 15 -10 0 -22 11 -27 25 -11 28 -18 31 -25 13z"/>
<path d="M3934 2248 c3 -34 2 -66 -1 -71 -3 -6 -5 -73 -4 -149 l2 -138 -36 0
c-29 0 -37 5 -45 25 -14 36 -28 31 -28 -10 l0 -34 52 2 51 2 3 -68 c3 -59 1
-68 -14 -65 -25 4 -30 -22 -5 -29 16 -4 19 -11 15 -28 -7 -28 27 -55 71 -55
29 -1 29 -1 11 -15 -19 -15 -19 -15 2 -15 13 0 22 6 22 15 0 8 6 15 14 15 7 0
19 7 26 15 10 12 16 13 24 5 8 -8 8 -13 -1 -18 -6 -4 -15 -21 -19 -37 -4 -17
-11 -35 -16 -42 -13 -16 13 -43 40 -43 11 0 22 -4 24 -9 2 -5 17 -13 33 -17
30 -7 30 -7 12 14 -26 29 -18 56 17 60 28 3 29 2 23 -31 -5 -33 -5 -34 19 -23
13 6 24 14 24 19 0 4 8 15 18 25 18 18 18 20 -4 47 -21 27 -25 28 -48 15 -30
-16 -45 -7 -30 18 17 26 55 31 76 10 10 -10 18 -21 18 -25 0 -15 73 -13 89 1
22 20 234 19 227 -1 -3 -7 -2 -14 2 -15 48 -10 230 -18 249 -11 29 11 10 24
-34 22 -121 -4 -203 2 -203 15 0 20 12 27 26 15 9 -7 179 -11 544 -10 l531 0
19 23 c25 30 25 37 0 31 -11 -3 -20 -8 -20 -12 0 -9 -1039 -7 -1077 3 -19 4
-34 3 -38 -3 -4 -7 -53 -11 -127 -11 l-120 0 6 -25 c6 -22 3 -25 -19 -25 -22
0 -25 3 -19 25 6 26 -2 30 -48 26 -9 -1 -19 3 -23 9 -10 16 -43 12 -53 -6 -6
-11 -11 -13 -16 -5 -5 7 -45 11 -114 11 l-107 0 2 152 c1 84 2 153 3 153 8 0
5 313 -2 323 -21 25 -29 10 -24 -50z"/>
<path d="M893 2266 c-28 -6 -64 -20 -80 -32 -24 -18 -26 -23 -15 -37 15 -18
44 -145 36 -158 -3 -5 -15 -9 -27 -9 -24 0 -61 -35 -52 -50 3 -5 24 1 46 13
34 18 41 19 49 7 7 -10 5 -19 -6 -27 -9 -6 -14 -22 -12 -35 2 -18 -2 -24 -22
-26 -14 -2 -34 -7 -45 -12 -11 -4 -42 -11 -69 -14 -27 -3 -57 -13 -66 -21 -9
-8 -26 -15 -37 -15 -15 0 -20 -6 -20 -24 0 -14 6 -27 14 -30 8 -3 11 -10 8
-16 -4 -6 -16 -3 -32 10 -14 11 -34 20 -44 20 -10 0 -23 10 -30 22 -9 18 -9
20 4 15 9 -3 18 1 21 9 10 26 7 34 -14 34 -23 0 -26 10 -8 28 17 17 28 15 28
-4 0 -13 3 -14 14 -5 10 8 16 9 21 1 3 -5 10 -10 16 -10 12 0 12 37 -1 45 -5
3 -10 15 -10 26 0 16 6 20 24 17 13 -1 33 5 44 16 12 10 26 15 33 11 8 -6 1
-17 -21 -36 -18 -16 -37 -29 -41 -29 -5 0 -9 -4 -9 -9 0 -17 35 -16 52 1 24
24 30 23 50 -9 12 -19 18 -23 18 -12 0 9 -7 22 -15 29 -8 7 -15 17 -15 22 0
15 43 47 63 48 9 0 17 6 17 14 0 20 -19 30 -25 14 -3 -7 -19 -14 -35 -15 -27
-2 -30 0 -24 21 4 16 0 25 -11 30 -25 9 -36 -2 -29 -29 7 -27 -9 -40 -47 -37
-19 2 -29 -5 -37 -23 -18 -40 -42 -32 -35 11 5 29 3 36 -8 32 -8 -2 -15 -18
-17 -36 -3 -29 -5 -30 -37 -25 -41 7 -88 -4 -80 -17 3 -6 32 -10 63 -11 l57
-1 -40 -13 c-28 -9 -33 -14 -17 -14 33 -1 31 -41 -3 -41 -14 0 -25 -5 -25 -10
0 -6 -6 -10 -12 -8 -18 3 -58 -12 -58 -22 0 -14 49 -21 70 -10 10 5 26 10 34
10 20 0 21 -36 1 -44 -8 -3 -15 -12 -15 -21 0 -18 -21 -20 -37 -4 -6 6 -16 8
-23 4 -15 -9 4 -31 34 -39 13 -3 26 -12 29 -19 7 -18 -11 -45 -20 -32 -31 42
-109 35 -150 -13 l-21 -25 -37 31 c-39 35 -95 45 -95 17 0 -11 11 -15 37 -15
29 0 45 -8 75 -37 21 -20 38 -31 38 -23 0 7 2 11 5 8 10 -10 -7 -38 -24 -38
-20 1 -51 24 -51 39 0 14 -17 15 -25 1 -3 -6 0 -13 8 -16 8 -3 17 -15 20 -26
4 -13 11 -19 21 -15 18 7 27 -4 36 -47 4 -18 12 -30 19 -28 23 5 51 -9 51 -25
0 -13 -11 -14 -66 -9 -38 3 -72 12 -80 21 -9 8 -20 15 -26 15 -13 0 -1 -52 14
-61 6 -4 8 -15 4 -24 -4 -13 -2 -16 9 -11 20 7 19 -8 -1 -25 -14 -12 -14 -14
2 -26 17 -12 17 -15 -4 -43 -19 -25 -22 -38 -16 -80 4 -28 10 -50 15 -50 5 0
9 5 9 10 0 6 9 19 20 30 22 22 19 43 -5 33 -9 -3 -15 1 -15 11 0 9 4 16 9 16
23 0 41 -14 41 -31 0 -10 5 -19 10 -19 6 0 10 7 10 15 0 8 6 15 14 15 27 0 33
24 14 60 -10 20 -18 28 -18 18 0 -10 -7 -18 -15 -18 -7 0 -18 -8 -24 -17 -5
-10 -13 -14 -18 -9 -4 5 -2 11 5 13 15 6 16 30 2 35 -17 5 1 68 22 79 24 13
77 2 85 -17 4 -11 9 -12 19 -3 19 16 44 4 44 -22 0 -12 -8 -23 -20 -26 -26 -7
-25 -23 2 -52 16 -18 19 -27 11 -40 -8 -12 -7 -22 2 -34 15 -21 25 -22 25 -2
0 8 9 15 21 15 11 0 18 4 14 10 -3 5 -12 7 -20 3 -11 -4 -15 2 -15 24 0 16 -5
34 -11 40 -8 8 -5 15 8 24 34 24 35 38 9 63 -14 13 -26 33 -26 45 0 23 -25 29
-33 9 -3 -7 -6 -3 -6 10 -1 27 -23 52 -45 52 -12 0 -16 10 -16 36 0 28 3 35
15 30 11 -4 15 2 15 24 0 22 4 28 15 24 8 -4 15 -17 15 -30 0 -24 23 -33 35
-14 3 6 17 10 31 10 15 0 24 6 24 16 0 13 -7 15 -30 11 -23 -5 -30 -3 -30 9 0
12 -9 15 -42 12 -24 -2 -43 2 -45 8 -5 15 65 26 89 13 22 -12 128 -2 128 12 0
5 4 9 9 9 5 0 7 -10 4 -21 -5 -19 -4 -20 15 -10 11 6 35 11 52 11 26 0 31 -4
36 -29 4 -17 15 -38 25 -47 18 -16 19 -16 19 1 0 10 -7 26 -15 36 -14 15 -14
18 0 32 8 9 15 18 15 20 0 3 -29 9 -65 12 -69 8 -79 19 -47 48 23 21 29 21 49
2 20 -21 39 -14 35 13 -2 15 2 22 14 22 13 0 15 -6 11 -28 -7 -33 2 -50 34
-66 26 -13 37 -52 20 -69 -6 -6 -11 -22 -11 -35 0 -37 28 -9 32 31 2 23 9 33
23 35 29 6 58 34 44 43 -6 4 -8 12 -4 19 6 10 11 8 22 -6 11 -15 15 -16 22 -5
5 7 13 11 18 8 5 -3 18 3 27 15 l18 21 17 -26 c8 -15 19 -27 23 -27 5 0 9 35
9 78 3 184 15 427 24 480 7 36 5 37 -82 18z"/>
<path d="M9789 2193 c-1 -4 0 -18 1 -30 1 -18 -4 -23 -23 -23 -29 0 -77 -45
-77 -71 0 -10 -9 -24 -20 -31 -11 -7 -20 -21 -20 -32 0 -16 -6 -18 -59 -14
-51 4 -60 2 -64 -14 -3 -10 -14 -18 -25 -18 -31 0 -36 -19 -7 -26 28 -7 29 -8
15 -35 -16 -28 -39 -23 -54 11 -13 31 -26 30 -26 -2 0 -10 -4 -18 -10 -18 -5
0 -10 6 -10 13 0 15 -103 42 -120 32 -5 -3 -10 -1 -10 4 0 6 -7 11 -15 11 -8
0 -15 -9 -15 -20 0 -24 -17 -26 -42 -3 -10 9 -20 14 -23 12 -11 -12 -7 -129 5
-144 11 -13 14 -12 27 12 12 24 12 29 -1 39 -9 6 -16 18 -16 27 0 19 27 30 36
15 5 -7 12 -5 21 8 19 26 113 28 113 3 0 -13 16 -20 70 -30 39 -7 70 -17 71
-23 3 -29 -3 -173 -7 -189 -4 -11 2 -20 16 -25 17 -6 19 -10 8 -18 -31 -25
-47 -24 -50 3 -4 35 -28 43 -28 10 0 -31 -23 -36 -120 -29 -75 5 -94 17 -65
39 18 12 17 13 -8 13 -20 0 -28 6 -33 24 -3 14 -3 29 0 35 9 14 66 9 66 -6 0
-7 -4 -13 -9 -13 -5 0 -4 -11 2 -25 7 -14 20 -25 30 -25 22 0 22 16 0 29 -27
15 -6 26 50 26 28 0 52 5 54 11 5 16 -57 27 -73 13 -11 -9 -20 -7 -39 5 -13 9
-31 16 -40 16 -21 0 -19 37 3 49 11 6 53 8 95 6 46 -3 77 0 77 5 0 6 -11 10
-24 10 -36 0 -55 10 -49 26 8 22 -21 17 -35 -7 -19 -30 -56 -22 -60 14 -5 38
-22 24 -22 -18 0 -19 -4 -36 -9 -39 -4 -3 -6 -17 -3 -31 6 -36 -36 -32 -51 5
-4 8 -5 -11 -2 -42 l4 -57 -27 11 c-39 17 -53 29 -46 40 3 5 13 7 21 3 13 -4
14 -3 3 10 -18 22 -36 19 -58 -10 -16 -20 -21 -22 -26 -10 -3 9 0 15 9 15 8 0
15 6 15 13 0 6 3 23 7 37 l6 25 -27 -24 -26 -24 0 31 c0 17 5 34 11 38 8 5 8
9 -1 14 -6 4 -12 28 -13 54 -1 26 -7 46 -13 46 -18 0 -24 -39 -14 -85 4 -22 7
-68 7 -103 -2 -56 0 -65 22 -79 20 -13 28 -13 44 -4 15 10 23 9 41 -2 12 -9
33 -17 47 -19 20 -2 24 -8 22 -33 l-2 -31 162 4 c93 2 172 8 185 14 17 9 25 9
34 0 7 -7 22 -12 35 -12 13 0 23 -4 23 -10 0 -5 8 -10 18 -10 10 0 30 -14 45
-31 15 -18 31 -28 35 -25 4 4 -2 15 -13 24 -11 10 -20 26 -20 37 0 17 -6 19
-32 17 -19 -2 -33 1 -33 7 0 6 -9 11 -20 11 -11 0 -20 5 -20 10 0 6 -9 10 -19
10 -22 0 -28 37 -36 227 l-5 112 128 0 c162 0 152 -1 152 16 0 8 7 15 16 15
26 0 42 -24 37 -56 l-5 -29 24 27 c32 36 64 45 73 19 7 -23 0 -41 -17 -41 -12
0 -37 -30 -38 -45 0 -7 3 -7 8 0 4 6 15 16 25 24 17 13 18 9 14 -78 -2 -51 1
-94 5 -97 4 -3 -5 -17 -22 -30 -16 -14 -34 -23 -39 -20 -15 9 -22 -10 -15 -38
5 -21 9 -24 25 -15 10 5 19 16 19 24 0 29 28 15 34 -17 7 -35 -9 -63 -20 -35
-11 29 -22 19 -31 -25 -11 -53 -35 -61 -56 -19 -10 19 -11 33 -5 39 24 24 0
28 -27 6 l-30 -25 23 -16 c26 -18 28 -30 5 -55 -14 -15 -14 -22 -3 -46 l12
-27 9 24 c9 23 10 23 24 5 13 -19 14 -19 29 1 13 18 13 20 -5 23 -10 2 -19 7
-19 11 0 7 69 41 83 41 3 0 6 -47 5 -105 -1 -98 -10 -128 -25 -88 -4 9 -1 19
5 21 19 6 14 22 -7 22 -10 0 -22 -7 -25 -16 -6 -16 -8 -16 -24 0 -23 20 -36
20 -53 0 -7 -9 -22 -14 -36 -11 -17 3 -23 1 -19 -8 7 -19 -21 -26 -35 -9 -7 8
-19 14 -28 12 -9 -1 -22 1 -28 5 -7 4 -22 3 -34 -3 -11 -7 -29 -10 -39 -7 -11
3 -21 -1 -24 -9 -3 -8 -14 -14 -24 -14 -20 0 -46 -23 -36 -32 3 -3 19 1 37 10
17 9 54 18 82 20 44 3 55 0 93 -28 36 -26 43 -28 42 -13 -4 33 0 41 21 46 15
4 19 1 17 -11 -2 -10 8 -23 26 -32 33 -17 46 -40 22 -40 -9 0 -16 -5 -16 -11
0 -6 6 -9 14 -6 23 9 39 -18 26 -42 -6 -12 -15 -21 -21 -21 -6 0 -7 -5 -4 -10
5 -8 12 -7 22 2 13 11 18 9 31 -10 19 -29 32 -28 32 2 0 13 6 23 13 22 6 0 13
4 14 9 1 6 -7 9 -17 7 -15 -2 -20 3 -20 18 0 18 4 21 23 16 l24 -6 0 155 c1
134 -1 157 -16 165 -14 9 -14 11 -1 22 19 15 24 96 8 115 -5 7 -7 21 -3 30 9
25 13 383 4 389 -5 3 -27 -13 -50 -36 -43 -41 -86 -58 -58 -22 8 9 19 20 24
25 6 4 4 11 -5 17 -22 14 -35 12 -54 -9 -17 -19 -19 -18 -57 20 -21 21 -39 41
-39 44 0 10 36 5 47 -6 8 -8 13 -5 18 10 3 12 12 21 20 21 10 0 11 7 6 27 -7
25 -30 44 -32 26z"/>
<path d="M6460 1916 c-10 -20 -10 -28 -1 -40 9 -10 9 -16 1 -21 -7 -5 -10 -39
-6 -101 2 -53 0 -96 -5 -100 -9 -5 -460 -7 -463 -2 -1 2 -7 15 -14 31 -14 33
-29 35 -28 5 1 -18 -5 -24 -27 -26 l-28 -3 7 51 c6 48 5 52 -12 48 -19 -4 -22
-19 -10 -66 4 -17 -2 -32 -20 -50 l-25 -27 -19 25 c-11 14 -20 36 -20 49 0 20
3 22 28 16 l27 -6 -28 28 -28 28 -19 -25 c-17 -22 -18 -26 -4 -37 13 -9 13
-15 3 -35 -7 -12 -15 -30 -19 -38 -9 -20 -50 -25 -61 -8 -6 8 -7 1 -3 -18 5
-25 1 -33 -21 -48 -26 -17 -26 -18 -9 -37 23 -26 34 -24 34 6 0 18 5 25 19 25
10 0 21 -7 25 -15 7 -20 46 -19 46 1 0 13 7 15 30 11 16 -4 32 -2 35 3 3 6 -1
10 -10 10 -8 0 -18 6 -21 13 -3 9 -16 12 -34 9 -34 -5 -39 9 -12 36 17 17 19
17 42 -5 30 -28 47 -29 55 -4 4 13 21 21 55 28 63 13 78 4 45 -27 -20 -19 -25
-20 -25 -7 0 27 -18 28 -46 2 -30 -28 -27 -43 5 -24 24 15 27 13 36 -24 7 -28
6 -29 -25 -25 -34 3 -46 -8 -32 -29 6 -9 19 -8 57 5 64 21 63 21 42 36 -22 17
-22 28 2 55 19 22 25 23 213 21 106 0 210 -2 231 -4 27 -3 37 0 37 11 0 10 6
12 20 8 20 -6 28 9 10 20 -20 12 -10 45 15 51 43 11 55 0 44 -38 -5 -18 -9
-33 -9 -33 0 -5 50 4 60 10 10 6 8 10 -9 17 -27 9 -23 28 7 44 33 16 18 21
-48 17 -45 -3 -60 -1 -60 9 0 7 -3 23 -6 35 -6 22 -5 22 96 20 56 -2 103 0
106 4 6 10 -49 19 -75 12 -17 -4 -24 -1 -28 16 -6 25 -12 26 -27 7 -6 -7 -26
-16 -43 -20 -31 -5 -33 -4 -33 23 0 16 6 31 15 35 8 3 15 10 15 16 0 5 -7 10
-15 10 -8 0 -15 7 -15 15 0 8 7 15 16 15 19 0 13 24 -7 28 -9 1 -21 -9 -29
-22z"/>
<path d="M7354 1868 c1 -18 6 -36 11 -40 6 -5 5 -8 -3 -8 -7 0 -10 -5 -7 -10
5 -8 11 -7 21 1 31 25 124 -16 124 -55 0 -12 5 -27 12 -34 18 -18 4 -24 -23
-10 -15 8 -23 20 -21 31 2 11 -3 17 -13 17 -9 0 -25 10 -34 21 l-17 22 -27
-27 c-15 -15 -27 -31 -27 -36 0 -16 22 -11 36 8 12 15 18 12 70 -41 42 -44 54
-61 45 -70 -8 -8 -15 -6 -27 11 -8 12 -23 22 -32 22 -11 0 -13 -3 -5 -8 6 -4
14 -19 18 -33 5 -19 2 -28 -10 -33 -20 -7 -77 23 -68 37 5 9 -14 27 -29 27
-20 0 -4 -28 32 -60 22 -19 40 -41 40 -47 0 -19 18 -16 25 5 3 9 26 30 52 46
52 34 128 44 137 19 3 -8 10 -11 16 -8 16 10 12 22 -10 28 -29 7 -25 27 6 27
16 0 24 5 21 13 -2 7 -19 12 -41 11 -32 -1 -36 1 -30 18 7 22 -21 58 -44 58
-13 0 -13 -3 1 -18 22 -24 21 -42 -1 -42 -12 0 -23 13 -31 37 -16 42 -76 102
-104 103 -9 0 -23 11 -29 25 -16 36 -35 31 -34 -7z"/>
<path d="M6878 1761 c-15 -9 -27 -20 -27 -26 3 -26 -2 -35 -20 -35 -10 0 -21
-7 -25 -15 -6 -17 -36 -21 -36 -5 0 6 -7 6 -19 -2 -10 -6 -17 -17 -14 -25 3
-7 -2 -16 -12 -19 -9 -4 -14 -13 -10 -22 5 -15 -10 -32 -29 -32 -4 0 -6 14 -4
30 4 25 1 30 -16 30 -12 0 -28 -5 -36 -10 -13 -8 -12 -10 3 -10 10 0 17 -8 17
-18 0 -50 69 -59 97 -12 9 17 21 30 26 30 5 0 4 7 -3 15 -10 13 -9 15 11 15
43 0 67 11 73 33 6 22 7 22 21 3 8 -11 15 -31 15 -45 0 -39 16 -58 23 -30 5
19 8 20 21 9 20 -16 20 -1 1 24 -34 45 -6 49 37 5 26 -25 31 -39 33 -84 1 -35
8 -61 18 -73 9 -10 17 -25 17 -33 1 -9 4 -8 11 5 6 10 7 21 3 25 -5 3 -15 17
-22 30 -11 18 -11 25 -2 31 7 4 9 16 5 29 -9 30 2 43 26 28 15 -9 18 -19 13
-39 -3 -17 -1 -28 5 -28 14 0 15 67 1 75 -15 9 -12 25 5 25 9 0 18 -7 21 -15
4 -8 11 -15 18 -15 20 0 39 18 31 29 -5 9 -10 9 -20 1 -9 -8 -17 -4 -29 14 -9
14 -16 32 -16 39 0 8 -7 20 -15 27 -13 11 -17 8 -28 -19 -9 -24 -17 -31 -30
-27 -10 2 -21 -2 -24 -10 -8 -22 -23 -6 -23 27 0 34 -10 37 -35 9 -25 -27 -42
-25 -49 6 -5 19 -2 30 10 38 27 20 12 34 -18 17z"/>
<path d="M2635 1729 c-4 -12 -2 -26 4 -32 6 -6 11 -24 11 -39 0 -47 -28 -52
-187 -39 -76 6 -180 11 -231 11 -86 0 -93 2 -101 22 -8 21 -8 21 -13 -5 l-5
-27 78 0 c43 0 108 -7 146 -16 51 -12 97 -14 186 -10 65 3 125 9 135 13 16 8
56 8 319 3 67 -1 126 1 133 5 6 4 16 3 23 -2 7 -5 131 -11 277 -12 265 -3 265
-3 240 17 l-24 19 22 12 c14 7 45 9 91 5 66 -6 70 -8 73 -33 2 -18 9 -26 23
-26 15 0 19 6 17 23 -3 18 2 22 22 22 19 0 24 4 20 15 -4 10 -19 15 -43 15
-60 -1 -87 4 -105 19 -15 12 -19 12 -26 1 -6 -10 -65 -13 -297 -11 -310 1
-766 11 -771 16 -2 2 4 15 13 29 17 25 17 26 -3 26 -12 0 -23 -9 -27 -21z"/>
<path d="M8897 1713 c-6 -32 -8 -33 -54 -33 -27 0 -82 -6 -123 -14 -41 -8 -78
-12 -82 -10 -4 3 -8 15 -8 27 -1 19 -2 20 -13 6 -20 -26 -57 -42 -61 -27 -3 7
-6 20 -9 28 -4 12 -6 11 -13 -5 -16 -42 -49 -47 -59 -7 l-7 27 -20 -25 c-11
-13 -28 -25 -39 -25 -27 0 -23 -20 4 -20 23 -1 24 -7 13 -70 -5 -27 -4 -35 8
-35 15 0 29 29 24 50 -2 7 2 14 8 17 11 4 34 -38 34 -62 0 -8 7 -11 20 -8 24
6 26 19 5 27 -8 3 -15 16 -15 30 0 13 -5 26 -12 28 -19 7 0 27 20 21 25 -6 44
-55 37 -95 -6 -34 8 -68 22 -55 4 5 9 27 10 49 2 23 9 46 15 51 10 6 9 7 -2 4
-14 -4 -39 19 -40 36 0 5 15 8 33 7 17 -1 34 -1 37 0 3 1 37 4 75 6 103 6 278
24 288 31 19 12 -2 28 -38 28 -33 0 -40 4 -45 25 -6 24 -6 24 -13 -7z"/>
<path d="M8217 1674 c-3 -3 -2 -16 3 -29 5 -14 5 -26 -2 -33 -9 -9 -7 -17 6
-31 11 -12 16 -27 12 -36 -8 -21 -30 -14 -34 11 -7 44 -13 50 -26 25 -12 -21
-14 -22 -23 -7 -8 15 -13 15 -41 3 -25 -10 -29 -16 -20 -25 15 -15 25 -14
-182 -17 -351 -5 -340 -4 -334 -19 8 -20 -11 -29 -26 -11 -6 7 -18 11 -26 8
-8 -3 -14 0 -14 6 0 6 9 11 19 11 26 0 37 18 15 27 -18 7 -47 -23 -41 -41 5
-16 61 -44 76 -38 7 3 17 -1 21 -9 5 -7 12 -10 16 -6 4 4 2 13 -4 19 -7 7 -12
16 -12 20 0 5 117 7 260 6 l259 -3 12 23 c16 29 31 23 43 -16 7 -25 5 -36 -7
-50 -24 -26 -31 -69 -15 -85 12 -12 16 -12 28 1 13 14 12 15 -3 9 -15 -6 -17
-3 -13 13 3 11 9 29 12 40 3 11 12 20 20 20 8 0 14 9 14 20 0 11 -5 20 -11 20
-5 0 -8 4 -5 9 3 4 16 6 29 4 18 -4 26 2 35 22 9 20 17 25 32 20 11 -4 20 -2
20 4 0 6 -4 11 -10 11 -12 0 -40 65 -40 91 0 18 -29 27 -43 13z"/>
<path d="M8641 1594 c-21 -24 -21 -29 -9 -57 7 -18 12 -35 10 -39 -1 -4 7 -24
18 -44 12 -20 18 -44 15 -55 -4 -11 -2 -19 4 -19 6 0 11 7 11 15 0 7 8 19 18
24 11 7 12 11 4 11 -23 0 -42 28 -41 57 1 15 -2 43 -6 61 l-8 33 79 -6 c92 -8
104 -11 104 -25 0 -7 -23 -10 -60 -9 -34 1 -65 -2 -71 -8 -13 -13 4 -58 25
-66 21 -8 31 10 16 28 -15 18 -15 18 75 15 40 -1 79 -8 92 -16 29 -18 34 -18
26 2 -5 13 2 15 39 13 24 -2 49 1 56 5 7 4 17 4 23 1 11 -8 379 -8 386 -1 18
17 -21 24 -125 22 -64 -1 -133 1 -152 5 -22 4 -27 7 -12 8 12 0 22 6 22 11 0
12 -23 12 -119 0 -77 -10 -193 1 -217 21 -7 6 -43 14 -81 18 -37 4 -75 11 -83
15 -10 4 -24 -3 -39 -20z"/>
<path d="M9480 1529 c0 -18 4 -20 28 -15 93 21 91 22 89 -15 -2 -34 -2 -34
-55 -35 -28 -1 -59 -7 -67 -14 -8 -7 -22 -10 -30 -6 -9 3 -32 -1 -50 -9 -20
-8 -49 -11 -68 -8 -25 4 -36 1 -40 -10 -4 -12 -2 -14 9 -10 14 5 14 3 3 -15
-19 -30 -1 -41 20 -13 13 17 24 22 37 17 18 -7 18 -8 -3 -26 -13 -10 -23 -25
-23 -33 0 -9 -8 -16 -17 -16 -10 1 -28 -2 -40 -6 -15 -5 -23 -3 -23 4 0 6 -4
11 -10 11 -5 0 -10 -6 -10 -12 0 -7 -11 -14 -24 -14 -16 -1 -28 7 -40 27 -9
16 -23 29 -29 30 -7 0 -3 4 8 9 14 5 27 2 44 -14 l24 -21 -7 28 c-5 22 -3 27
12 27 10 0 25 -11 32 -25 7 -14 19 -25 27 -25 21 0 15 21 -7 27 -15 4 -19 11
-15 24 8 25 -19 36 -49 19 -13 -7 -33 -9 -45 -5 -16 5 -23 0 -33 -21 -11 -23
-10 -28 9 -44 24 -19 20 -30 -9 -30 -17 0 -18 -2 -4 -15 17 -18 80 -22 150
-11 36 6 57 16 78 38 15 17 28 34 28 39 0 10 12 12 46 10 12 -1 24 5 27 13 4
9 13 16 21 16 9 0 12 7 9 21 -5 18 -2 19 22 13 16 -4 45 -7 65 -8 20 -1 44 -9
54 -19 30 -29 57 -40 69 -28 16 16 37 14 37 -3 0 -8 5 -18 10 -21 6 -4 10 6
10 24 0 21 -6 32 -21 36 -14 5 -18 10 -11 17 13 13 52 0 52 -18 0 -8 9 -14 20
-14 27 0 25 12 -5 40 -20 19 -31 22 -65 16 -31 -5 -42 -3 -46 9 -8 19 -44 20
-44 0 0 -8 7 -15 15 -15 8 0 15 -4 15 -9 0 -5 9 -7 21 -4 17 5 20 2 17 -13 -6
-33 -41 -28 -66 10 -19 28 -22 38 -12 56 6 11 8 30 5 40 -6 17 -16 20 -76 20
-64 0 -69 -2 -69 -21z"/>
<path d="M5815 1490 c-3 -6 2 -13 12 -17 19 -6 63 -51 63 -64 0 -4 -37 -6 -82
-4 -107 5 -128 8 -128 19 0 5 -13 6 -29 3 -21 -4 -34 -1 -46 13 -22 24 -35 26
-35 4 0 -13 -12 -15 -72 -13 -40 2 -78 0 -84 -4 -6 -3 -16 4 -22 18 -13 27
-56 37 -46 10 7 -18 -35 -37 -53 -23 -7 6 -14 5 -18 -2 -9 -15 -25 -12 -25 4
0 13 -20 26 -41 26 -5 0 -9 -9 -9 -20 0 -17 -4 -19 -25 -14 -45 11 -59 9 -63
-8 -3 -15 4 -18 45 -18 27 0 54 5 61 12 9 10 16 9 28 -3 12 -13 26 -14 66 -8
28 5 56 5 62 2 5 -4 65 -8 132 -9 68 -1 127 -5 132 -8 5 -3 63 -8 130 -12 90
-5 125 -4 136 5 10 9 57 13 142 13 118 1 129 -1 150 -21 13 -12 20 -29 17 -37
-3 -8 1 -14 11 -14 24 0 20 38 -10 77 -20 26 -29 31 -39 23 -7 -6 -15 -7 -18
-3 -3 4 -64 8 -135 7 -127 -1 -130 -1 -143 22 -7 13 -16 24 -21 24 -4 0 -8 7
-8 15 0 17 -25 20 -35 5z"/>
<path d="M4380 1438 c-19 -6 -76 -13 -127 -17 -113 -7 -122 -16 -123 -113 0
-39 -4 -68 -10 -68 -5 0 -10 6 -10 14 0 8 -4 17 -9 20 -13 8 -41 -4 -41 -18 0
-27 -83 -46 -120 -26 -15 8 -21 6 -30 -10 -7 -14 -21 -20 -43 -20 -23 0 -28 3
-18 9 12 8 12 12 2 25 -10 12 -9 17 8 26 13 6 21 21 21 35 0 43 37 51 97 22
13 -6 26 -7 30 -2 5 4 2 10 -5 12 -7 3 -19 12 -27 20 -10 10 -24 13 -41 9 -14
-4 -41 -1 -60 6 -26 9 -37 9 -46 0 -23 -23 -41 -14 -35 18 7 34 -8 49 -22 22
-11 -21 -60 -35 -76 -22 -5 4 -25 11 -42 15 -31 6 -33 5 -33 -19 0 -29 6 -32
29 -12 14 12 19 11 35 -5 19 -19 19 -19 -32 -19 -45 0 -52 3 -52 19 0 11 -4
22 -9 25 -12 8 -45 -44 -34 -54 4 -5 52 -11 106 -15 54 -3 109 -10 123 -15 21
-8 26 -6 34 15 10 27 40 35 40 10 0 -8 -5 -26 -12 -40 -11 -24 -16 -26 -52
-21 -23 4 -90 10 -151 15 -60 5 -118 12 -127 16 -13 5 -21 0 -29 -19 -7 -14
-16 -26 -21 -26 -4 0 -8 -4 -8 -10 0 -15 27 -12 33 3 4 11 28 13 104 10 114
-4 174 -18 205 -45 22 -19 22 -20 4 -33 -29 -22 -97 -29 -286 -29 -235 -1
-646 14 -694 24 -47 10 -64 3 -39 -16 17 -13 17 -13 -3 -14 -11 0 -25 5 -31
11 -12 12 -53 -8 -53 -27 0 -15 855 -18 913 -3 23 6 72 10 110 9 37 -1 67 3
67 8 0 17 152 49 321 67 l55 6 -4 84 c-5 99 -18 90 153 100 61 4 126 8 145 9
19 2 79 0 132 -3 110 -7 119 -6 111 15 -4 11 -22 15 -72 15 -74 0 -166 6 -196
13 -11 2 -36 0 -55 -6z"/>
<path d="M9064 1310 c-4 -25 -12 -40 -21 -40 -8 0 -13 -6 -10 -12 4 -12 9 -14
50 -17 9 0 17 -7 17 -14 0 -8 11 -24 26 -38 20 -19 23 -25 11 -34 -7 -5 -17
-25 -20 -42 -6 -31 -5 -33 23 -33 28 0 29 1 18 25 -12 27 -4 45 13 28 15 -15
7 -64 -13 -77 -13 -8 -24 -5 -47 12 -18 13 -32 18 -36 12 -3 -6 -16 -10 -28
-10 -21 -1 -20 -2 7 -26 22 -19 31 -22 37 -13 5 9 12 10 21 3 17 -14 59 -15
74 -3 7 5 10 19 7 29 -8 28 12 25 36 -7 12 -14 24 -23 27 -20 4 4 16 0 27 -8
13 -9 25 -11 31 -5 6 4 69 11 139 14 107 5 127 4 127 -9 0 -26 33 -33 163 -34
109 -2 127 0 127 13 0 14 -17 16 -110 16 -107 0 -180 15 -180 38 0 12 -92 12
-107 0 -6 -5 -13 -5 -16 -1 -3 4 -40 6 -82 3 -42 -3 -85 -2 -96 2 -25 10 -73
57 -82 81 -3 9 -11 17 -17 17 -5 0 -10 9 -10 20 0 14 -7 20 -21 20 -11 0 -17
5 -14 10 4 6 -8 24 -25 40 -27 25 -30 33 -24 65 4 23 2 35 -5 35 -6 0 -14 -18
-17 -40z"/>
<path d="M6219 1293 c-1 -5 -1 -12 1 -18 1 -5 -1 -24 -5 -42 -5 -30 -8 -31
-26 -20 -10 6 -17 18 -14 24 2 7 0 13 -5 13 -6 0 -10 -11 -10 -25 0 -14 6 -25
14 -25 19 0 46 -38 97 -139 16 -32 33 -48 61 -60 21 -9 38 -22 38 -28 0 -16
26 -17 36 -2 3 6 16 8 27 5 12 -3 29 1 38 10 20 18 66 9 74 -14 3 -10 24 -29
46 -45 34 -23 43 -26 62 -16 12 7 38 13 59 14 29 2 43 -4 64 -26 29 -30 62
-37 81 -18 8 8 16 5 31 -11 13 -14 22 -18 27 -11 8 14 -3 31 -21 31 -18 0 -18
16 1 24 8 3 22 -2 31 -11 12 -12 20 -14 32 -7 32 21 24 33 -28 40 -28 4 -53
11 -56 15 -7 13 -54 11 -54 -2 0 -5 -8 -9 -17 -7 -10 1 -24 -1 -31 -6 -9 -5
-18 -2 -26 10 -7 9 -20 15 -28 11 -17 -6 -38 10 -38 29 0 18 61 29 70 14 10
-16 40 -5 40 14 0 8 -7 16 -16 18 -14 3 -13 7 5 29 22 28 19 39 -11 39 -14 0
-18 -6 -16 -27 3 -24 0 -28 -24 -28 -18 1 -31 -7 -39 -22 -7 -13 -18 -23 -26
-23 -17 0 -17 -15 2 -34 8 -8 15 -19 15 -25 0 -19 -28 -12 -43 10 -9 12 -18
16 -21 10 -9 -13 -76 26 -76 45 0 10 -13 14 -44 14 -26 0 -47 5 -50 13 -4 6
-5 3 -3 -9 4 -17 0 -19 -24 -16 -33 5 -47 32 -25 48 9 6 16 17 16 25 0 10 -3
10 -12 1 -21 -21 -58 -14 -68 14 -7 18 -15 24 -28 20 -13 -4 -23 1 -32 19 -7
14 -17 25 -22 25 -4 0 -8 9 -8 20 0 15 7 20 28 21 16 0 21 3 12 6 -22 9 -30
25 -24 46 3 10 0 24 -6 32 -13 16 -29 20 -31 8z"/>
<path d="M5122 1252 l4 -30 -60 4 c-154 11 -410 8 -414 -4 -2 -7 7 -12 25 -13
157 -7 193 -7 193 2 0 14 36 11 48 -4 13 -16 278 -13 298 4 8 7 13 6 16 -1 4
-13 881 -21 901 -8 13 9 13 9 -23 14 -26 4 -167 14 -185 14 -5 0 -43 -3 -82
-6 -61 -5 -74 -4 -79 10 -8 21 -44 21 -44 0 0 -13 -16 -15 -127 -9 -173 8
-310 8 -322 0 -8 -4 -8 2 -1 19 12 32 -9 36 -27 7 -7 -11 -20 -20 -30 -20 -10
1 -28 -2 -40 -6 -18 -6 -22 -3 -25 21 -2 15 -9 30 -17 32 -10 3 -13 -3 -9 -26z"/>
<path d="M287 1238 c-2 -7 11 -30 30 -51 35 -39 37 -73 2 -41 -17 15 -19 15
-25 0 -3 -9 -10 -13 -16 -10 -5 3 -7 12 -5 18 3 7 1 19 -3 26 -7 11 -11 10
-25 -3 -9 -10 -18 -17 -21 -17 -10 0 -3 20 13 36 13 12 13 15 3 11 -8 -4 -23
-10 -32 -13 -10 -4 -18 -12 -18 -19 0 -7 -5 -15 -12 -17 -16 -6 -48 22 -48 42
0 8 -11 20 -24 26 -21 10 -28 8 -47 -12 -17 -19 -20 -27 -11 -36 9 -9 16 -8
30 5 26 23 28 22 29 -17 1 -26 -3 -33 -13 -29 -8 3 -14 -1 -14 -11 0 -9 8 -16
20 -16 11 0 20 -5 20 -10 0 -6 11 -3 24 5 18 12 46 15 112 14 49 -1 123 -1
164 0 172 4 1556 -8 1571 -14 25 -9 34 14 13 30 -17 13 -17 16 -4 25 20 13 40
13 40 -1 0 -6 7 -8 16 -5 17 6 54 -19 54 -36 0 -4 -14 -8 -31 -8 -17 0 -36 -6
-44 -13 -10 -11 -8 -15 16 -26 16 -7 36 -25 44 -39 l14 -27 7 23 c5 17 11 21
28 16 11 -4 26 -10 32 -15 7 -6 18 -1 29 11 10 11 25 20 33 20 8 0 12 6 8 15
-9 25 10 17 35 -15 13 -16 33 -30 45 -30 11 0 25 -5 30 -10 7 -7 17 -3 30 11
17 20 17 22 1 16 -29 -11 -77 3 -77 23 0 10 -5 20 -12 22 -17 6 -2 38 18 38
10 0 14 -6 11 -14 -3 -8 2 -17 11 -20 9 -3 35 -12 57 -20 22 -8 34 -14 28 -15
-7 -1 -13 -8 -13 -16 0 -33 35 -7 42 30 2 15 -2 19 -15 17 -9 -2 -20 3 -23 11
-3 9 -14 12 -29 9 -19 -3 -27 1 -35 22 -12 32 -24 33 -66 1 -19 -15 -45 -25
-61 -24 -15 1 -40 -3 -55 -9 -23 -9 -28 -9 -28 2 0 30 13 46 36 46 17 0 24 6
24 20 0 11 5 20 11 20 7 0 9 -10 5 -25 -5 -20 -3 -25 14 -25 11 0 20 6 20 14
0 8 7 17 16 20 23 9 6 28 -18 20 -13 -4 -24 -1 -29 7 -6 11 -11 11 -20 2 -6
-6 -17 -9 -23 -7 -7 3 -18 -7 -26 -21 -18 -33 -54 -31 -58 4 -3 19 0 23 14 17
21 -8 55 20 47 40 -7 18 -33 18 -33 0 0 -8 -8 -17 -18 -20 -33 -10 -97 -20
-109 -18 -7 2 -13 -4 -13 -11 0 -32 -46 -47 -137 -46 -80 1 -85 2 -59 13 l29
13 -24 6 c-13 3 -44 1 -69 -5 -25 -6 -79 -12 -120 -12 -41 -1 -80 -5 -87 -9
-7 -5 -17 1 -24 14 -11 21 -15 21 -133 15 -92 -6 -124 -11 -133 -23 -8 -10
-21 -14 -40 -10 -15 3 -36 1 -46 -4 -10 -6 -27 -7 -39 -3 -20 6 -20 7 8 19 26
10 17 12 -85 18 -73 4 -119 3 -127 -4 -8 -7 -13 -6 -16 2 -2 6 -25 13 -50 15
-39 3 -47 0 -51 -16 -3 -12 -14 -20 -27 -20 -17 0 -21 5 -17 19 4 15 -2 20
-32 25 -73 12 -98 7 -120 -21 -21 -28 -21 -28 -27 -5 -4 12 -14 22 -25 22 -10
0 -21 5 -24 10 -8 12 -45 13 -45 1 0 -5 7 -11 15 -15 33 -12 12 -22 -51 -23
-54 -1 -65 1 -60 14 4 8 -6 27 -23 44 -32 31 -47 36 -54 17z"/>
<path d="M7040 1215 c0 -11 11 -15 36 -15 41 0 42 -18 3 -37 -13 -7 -31 -21
-39 -31 -23 -28 -81 -19 -76 12 2 11 1 16 -1 10 -4 -12 -35 -24 -60 -24 -7 0
-13 7 -13 15 0 8 9 15 20 15 11 0 20 5 20 10 0 14 -12 12 -38 -6 -12 -8 -22
-26 -22 -40 0 -27 3 -28 28 -14 12 8 31 6 71 -9 42 -15 59 -16 73 -8 14 9 21
8 33 -8 12 -14 18 -16 21 -7 8 17 27 15 20 -3 -6 -18 24 -21 40 -5 8 8 15 6
24 -5 7 -8 19 -15 27 -15 8 0 24 -5 35 -11 17 -9 18 -13 7 -20 -8 -5 -24 -9
-36 -9 -13 0 -23 -5 -23 -11 0 -6 9 -9 20 -6 17 4 19 1 14 -21 -6 -24 -2 -22
35 18 23 25 41 48 41 53 0 14 24 7 45 -13 21 -20 22 -20 44 -1 13 11 20 25 16
31 -5 8 4 9 32 4 l38 -7 -31 26 c-18 15 -38 27 -46 27 -8 0 -18 4 -24 10 -11
11 -54 2 -54 -11 0 -5 11 -9 24 -9 33 0 39 -13 15 -28 -13 -8 -19 -9 -19 -1 0
6 -13 9 -30 7 -19 -2 -34 3 -40 12 -5 8 -12 11 -17 7 -4 -4 -2 -17 5 -27 10
-16 9 -18 -3 -14 -8 4 -15 10 -15 15 0 5 -11 9 -25 9 -31 0 -53 19 -48 40 3 9
-3 23 -13 31 -16 13 -17 12 -12 -8 5 -19 2 -23 -16 -23 -12 0 -28 -6 -34 -12
-10 -10 -15 -10 -22 2 -6 10 0 21 26 39 40 29 42 36 12 62 -28 22 -68 25 -68
4z"/>
<path d="M614 1072 c-10 -8 -34 -57 -34 -72 0 -5 15 -14 34 -21 29 -11 33 -15
25 -31 -9 -17 -11 -17 -42 5 -18 13 -40 22 -49 20 -23 -6 -25 29 -3 47 21 17
19 42 -2 38 -11 -2 -20 -15 -23 -32 -7 -40 -30 -46 -30 -8 0 24 -6 32 -30 42
-17 7 -33 10 -36 7 -10 -10 7 -27 27 -27 21 0 26 -15 7 -26 -8 -5 -7 -10 4
-18 8 -6 17 -18 20 -28 4 -10 28 -21 62 -29 31 -7 56 -15 56 -18 -1 -16 -19
-33 -29 -26 -7 4 -18 2 -25 -4 -10 -8 -17 -7 -26 4 -7 8 -16 12 -21 9 -16 -10
-9 -24 11 -24 23 0 27 -28 5 -36 -17 -7 -47 14 -39 27 10 16 -17 49 -40 49
-13 0 -26 7 -30 15 -3 8 -11 15 -17 15 -6 0 -19 8 -28 19 -9 10 -30 21 -48 25
-31 7 -32 6 -30 -23 1 -17 5 -31 10 -31 4 0 7 -6 7 -14 0 -7 9 -16 20 -19 26
-7 26 -43 0 -50 -19 -5 -29 -27 -12 -27 5 0 19 -9 32 -20 26 -22 36 -25 45
-10 3 6 -1 13 -9 16 -17 6 -22 24 -8 24 5 0 17 -6 27 -14 18 -13 18 -14 -8
-40 -23 -23 -28 -24 -41 -11 -8 8 -22 15 -32 15 -21 0 -43 28 -44 57 0 13 -11
29 -29 39 -29 17 -32 44 -6 44 15 0 28 27 20 40 -3 5 -12 7 -20 3 -11 -4 -15
2 -15 20 0 30 -17 45 -26 23 -3 -9 -21 -18 -39 -22 -19 -3 -36 -12 -39 -20 -3
-8 -17 -14 -31 -14 -31 0 -32 -19 -2 -53 29 -34 50 -36 38 -4 -8 22 -7 23 16
19 20 -4 24 -1 21 14 -2 13 4 20 20 22 27 4 29 -13 2 -35 -11 -10 -20 -23 -20
-29 0 -7 -7 -14 -15 -18 -8 -3 -15 -12 -15 -21 0 -8 -3 -15 -6 -15 -17 0 -60
46 -75 80 -13 28 -22 38 -33 34 -24 -9 -19 -23 12 -35 15 -7 22 -13 15 -16
-23 -8 -12 -28 36 -64 52 -40 81 -38 81 4 1 22 1 22 23 -3 12 -14 29 -24 38
-22 8 1 31 -8 51 -22 20 -13 44 -26 55 -28 11 -2 18 -12 17 -26 -1 -32 23 -27
41 8 18 35 25 37 56 10 18 -15 20 -19 8 -20 -9 0 -31 -7 -49 -17 l-33 -16 22
-19 c25 -20 51 -24 51 -8 0 6 -8 14 -17 18 -14 5 -9 8 17 12 31 4 35 8 32 32
-2 19 6 36 33 62 31 31 38 34 55 24 25 -16 41 -1 17 16 -31 24 -20 38 28 35
33 -2 50 2 63 15 16 16 16 17 -10 11 -32 -8 -36 5 -10 27 35 30 127 32 115 2
-3 -7 7 -25 23 -39 26 -24 54 -33 54 -17 0 9 -32 37 -51 45 -10 4 -10 6 -1 6
14 1 17 31 2 31 -5 0 -10 6 -10 14 0 11 -14 13 -65 9 -59 -4 -65 -2 -65 15 0
24 55 38 78 20 11 -10 16 -9 26 3 6 9 23 19 39 23 26 6 35 20 19 30 -14 8 -52
-5 -52 -19 0 -7 -9 -15 -20 -18 -14 -4 -20 0 -20 13 0 10 -9 20 -20 23 -17 4
-19 1 -14 -21 5 -22 4 -25 -7 -15 -10 10 -17 9 -36 -9 -22 -21 -23 -21 -23 -2
0 11 5 25 11 31 12 12 -2 25 -17 15z"/>
<path d="M2654 1046 c-3 -9 -14 -16 -24 -16 -26 0 -50 -10 -50 -22 0 -5 8 -7
18 -4 67 20 75 20 69 -3 -6 -25 29 -56 48 -41 7 6 20 4 35 -7 17 -12 25 -13
28 -5 4 14 42 16 42 2 0 -5 9 -10 20 -10 11 0 20 4 20 9 0 4 11 6 25 3 14 -2
25 -8 25 -13 0 -5 5 -9 11 -9 6 0 24 -9 39 -20 19 -14 31 -17 35 -9 4 5 14 8
22 5 11 -4 13 -2 9 9 -7 18 15 20 32 3 9 -9 20 -9 49 2 21 7 58 13 83 12 25 0
51 4 58 10 8 7 17 7 28 -3 12 -10 17 -10 23 0 9 13 61 5 61 -10 0 -5 7 -9 15
-9 18 0 20 16 3 23 -10 4 -10 6 0 6 7 1 22 -4 32 -9 10 -6 21 -6 24 -1 3 4 52
6 108 4 57 -2 126 -3 153 -2 80 3 89 3 108 -5 12 -6 17 -4 17 9 0 13 3 15 13
6 8 -6 16 -8 20 -5 3 3 33 8 66 11 59 4 121 -11 121 -29 0 -5 5 -8 11 -8 8 0
8 5 -1 15 -7 8 -19 15 -26 15 -8 0 -14 4 -14 9 0 14 16 22 24 13 4 -4 39 -7
77 -7 55 0 69 3 69 15 0 22 -36 41 -65 34 -17 -4 -25 -2 -25 6 0 9 -7 7 -20
-5 -19 -17 -50 -15 -50 5 0 5 -5 10 -11 10 -6 0 -8 -7 -5 -16 5 -13 -2 -15
-37 -13 -23 1 -49 -1 -58 -5 -22 -10 -100 -2 -127 13 -20 11 -27 10 -42 -4
-14 -13 -27 -15 -47 -10 -44 12 -77 15 -93 9 -22 -9 -52 -13 -170 -19 -227
-13 -492 -16 -503 -7 -7 6 -34 13 -62 17 -27 4 -54 11 -60 15 -5 4 -30 10 -54
14 -37 6 -42 4 -33 -7 12 -14 7 -27 -10 -27 -5 0 -6 5 -3 11 4 6 -3 13 -15 16
-12 3 -19 11 -16 19 3 7 1 16 -5 19 -5 4 -12 -1 -15 -9z"/>
<path d="M1147 1044 c-3 -4 -2 -15 4 -26 6 -10 7 -27 4 -37 -5 -17 -1 -19 32
-17 21 1 48 8 60 14 33 18 39 14 14 -11 -17 -19 -19 -26 -9 -34 22 -17 52 -23
68 -13 11 7 7 10 -18 10 -40 0 -40 23 0 28 28 3 42 -10 52 -50 5 -21 2 -30
-13 -38 -27 -14 -31 -13 -31 10 0 11 -7 20 -15 20 -18 0 -20 -36 -2 -43 9 -3
7 -10 -6 -23 -18 -19 -18 -18 -35 3 -11 15 -32 24 -62 27 -26 3 -35 3 -22 -2
28 -8 30 -24 6 -32 -15 -6 -14 -8 6 -13 13 -3 29 -2 35 3 8 7 18 3 31 -11 16
-18 20 -18 29 -5 7 10 16 12 25 6 10 -6 11 -12 5 -19 -16 -16 -59 -17 -71 -2
-9 11 -14 11 -31 1 -17 -11 -26 -10 -57 9 -38 24 -47 48 -21 57 8 4 15 12 15
19 0 6 9 20 20 30 20 18 21 18 49 -9 18 -17 34 -25 42 -21 9 6 9 11 -3 19 -8
6 -17 19 -21 29 -11 29 -60 22 -87 -13 -24 -31 -46 -41 -37 -16 6 15 -11 36
-29 36 -16 0 -5 -50 12 -57 23 -9 16 -36 -22 -77 -40 -44 -38 -66 6 -66 33 0
39 14 13 29 -14 7 -15 13 -6 22 13 13 33 4 33 -16 0 -11 16 -14 68 -13 37 1
81 -2 99 -6 28 -7 32 -6 35 15 2 18 8 23 23 21 11 -2 23 -8 26 -14 3 -5 15 -8
25 -7 11 2 25 0 32 -4 17 -11 35 2 28 20 -4 9 1 17 13 20 19 5 19 5 0 39 -25
45 -24 54 6 54 30 0 33 16 4 25 -12 4 -27 1 -38 -9 -21 -19 -61 -10 -61 14 0
19 33 36 50 25 12 -8 90 15 90 27 0 4 7 8 15 8 8 0 15 -4 15 -10 0 -5 -7 -10
-15 -10 -17 0 -20 -16 -4 -25 6 -4 19 2 29 13 18 19 18 20 -1 38 -23 20 -17
33 7 13 10 -8 39 -13 78 -12 46 2 57 -1 43 -8 -10 -6 -25 -8 -32 -5 -8 3 -17
2 -19 -3 -3 -4 18 -14 46 -21 27 -8 53 -20 55 -27 3 -8 19 -21 35 -29 23 -12
27 -18 18 -29 -13 -16 -4 -39 11 -29 5 3 26 0 46 -7 31 -10 38 -9 48 4 7 9 23
20 36 25 24 9 24 9 -9 26 -32 17 -34 17 -39 -2 -5 -19 -53 -29 -53 -11 0 5 7
9 15 9 8 0 15 6 15 14 0 21 71 62 107 61 17 -1 39 -9 48 -18 18 -19 4 -23 -26
-7 -13 7 -19 7 -19 0 0 -5 7 -10 16 -10 11 0 15 -6 11 -20 -8 -31 15 -24 52
15 l33 35 -24 9 c-13 4 -29 6 -37 3 -9 -3 -12 0 -9 9 6 20 46 23 66 6 14 -11
21 -12 41 -1 23 12 23 13 -20 25 -24 7 -52 19 -61 27 -15 13 -24 12 -75 -6
-60 -22 -109 -26 -119 -10 -3 5 -15 6 -25 3 -11 -4 -26 -1 -34 5 -10 9 -23 9
-43 2 -17 -6 -47 -7 -71 -2 -24 4 -51 5 -62 3 -10 -3 -25 0 -33 6 -8 7 -29 10
-48 7 -18 -3 -92 -8 -164 -11 -104 -4 -135 -2 -150 10 -20 15 -46 19 -57 9z"/>
<path d="M9320 986 c0 -18 -36 -22 -42 -4 -2 6 -10 9 -17 7 -9 -3 -4 -11 14
-23 20 -13 30 -15 38 -7 6 6 17 11 24 11 11 0 11 -4 1 -20 -16 -25 1 -40 44
-40 15 0 30 -5 33 -10 5 -8 11 -8 19 -1 7 6 22 8 34 4 12 -3 22 -1 22 4 0 17
225 23 295 8 l40 -9 -33 -5 c-45 -8 -36 -27 12 -23 21 1 44 -2 51 -8 9 -8 14
-6 19 5 3 8 17 15 31 15 14 0 25 5 25 10 0 6 5 10 10 10 6 0 10 -14 10 -31 0
-23 -4 -30 -15 -26 -17 7 -29 -8 -20 -23 5 -8 11 -7 21 1 12 9 14 6 14 -22 0
-24 -3 -30 -9 -20 -10 15 -41 8 -41 -9 0 -5 9 -10 19 -10 23 0 40 -22 23 -28
-17 -5 -15 -27 3 -42 10 -8 12 -17 5 -29 -5 -9 -6 -36 -3 -59 5 -34 3 -42 -11
-42 -9 0 -16 -4 -16 -10 0 -5 6 -7 14 -4 8 3 16 -3 19 -15 7 -26 -3 -35 -18
-15 -15 22 -55 10 -55 -17 0 -10 5 -19 11 -19 7 0 9 -10 7 -24 -3 -15 2 -27
14 -35 14 -9 18 -8 18 4 0 8 5 15 10 15 6 0 10 -19 10 -41 0 -38 -1 -40 -17
-28 -10 8 -21 18 -24 22 -4 5 -15 7 -25 4 -17 -4 -17 -6 4 -12 12 -4 22 -13
22 -21 0 -7 8 -17 18 -23 15 -8 17 -29 19 -177 1 -92 5 -169 7 -171 3 -3 9 -2
15 2 8 4 9 81 6 248 -3 133 -5 251 -5 262 0 11 1 114 2 229 l1 210 -109 -2
c-60 -1 -156 2 -214 7 -170 16 -283 30 -307 37 -17 5 -23 2 -23 -10z"/>
</g>
</svg>
